<?xml version="1.0" encoding="UTF-8"?><svg id="Layer_3" xmlns="http://www.w3.org/2000/svg" viewBox="0 0 468 360"><defs><style>.cls-1,.cls-2,.cls-3,.cls-4,.cls-5{fill:#231f20;}.cls-6,.cls-7{stroke-width:.8px;}.cls-6,.cls-7,.cls-8,.cls-9{fill:none;stroke:#231f20;}.cls-6,.cls-8,.cls-9{stroke-miterlimit:10;}.cls-2{font-size:59.77px;}.cls-2,.cls-3,.cls-4,.cls-5{font-family:PPNeueMontreal-Book, 'PP Neue Montreal';}.cls-3{font-size:14.94px;}.cls-7{stroke-linecap:round;stroke-linejoin:round;}.cls-4{font-size:27.89px;}.cls-8,.cls-9{stroke-width:2px;}.cls-5{font-size:10.96px;}.cls-9{stroke-dasharray:3.34 2.23;}.cls-10{letter-spacing:-.06em;}.cls-11{letter-spacing:-.02em;}.cls-12{letter-spacing:-.03em;}.cls-13{letter-spacing:-.02em;}.cls-14{letter-spacing:-.02em;}.cls-15{letter-spacing:-.02em;}.cls-16{letter-spacing:-.02em;}.cls-17{letter-spacing:-.02em;}.cls-18{letter-spacing:-.02em;}.cls-19{letter-spacing:-.01em;}.cls-20{letter-spacing:-.01em;}.cls-21{letter-spacing:-.02em;}.cls-22{letter-spacing:-.02em;}.cls-23{letter-spacing:-.02em;}.cls-24{letter-spacing:-.01em;}.cls-25{letter-spacing:-.01em;}.cls-26{letter-spacing:-.01em;}.cls-27{letter-spacing:-.03em;}.cls-28{letter-spacing:-.03em;}.cls-29{letter-spacing:-.03em;}.cls-30{letter-spacing:-.03em;}.cls-31{letter-spacing:-.03em;}.cls-32{letter-spacing:-.03em;}.cls-33{letter-spacing:-.03em;}.cls-34{letter-spacing:-.03em;}.cls-35{letter-spacing:0em;}.cls-36{letter-spacing:0em;}.cls-37{letter-spacing:0em;}.cls-38{letter-spacing:-.01em;}.cls-39{letter-spacing:-.01em;}.cls-40{letter-spacing:0em;}.cls-41{letter-spacing:0em;}.cls-42{letter-spacing:0em;}.cls-43{letter-spacing:0em;}.cls-44{letter-spacing:0em;}.cls-45{letter-spacing:0em;}.cls-46{letter-spacing:0em;}</style></defs><text class="cls-3" transform="translate(17.18 51.51)"><tspan class="cls-36" x="0" y="0">H</tspan><tspan class="cls-19" x="10.42" y="0">y</tspan><tspan x="17.38" y="0">d</tspan><tspan class="cls-32" x="25.7" y="0">r</tspan><tspan x="30.14" y="0">ogen</tspan></text><rect class="cls-6" x="156.77" y="72.24" width="155.41" height="155.41"/><text class="cls-3" transform="translate(196.07 94.53)"><tspan class="cls-26" x="0" y="0">[</tspan><tspan x="3.74" y="0">1</tspan><tspan class="cls-29" x="8.35" y="0">.</tspan><tspan x="10.65" y="0">0</tspan><tspan class="cls-23" x="19.84" y="0">0</tspan><tspan class="cls-17" x="28.75" y="0">7</tspan><tspan x="36.01" y="0">8</tspan><tspan class="cls-33" x="44.83" y="0">4</tspan><tspan class="cls-27" x="52.75" y="0">,</tspan><tspan x="55.08" y="0" xml:space="preserve"> 1</tspan><tspan class="cls-28" x="62.97" y="0">.</tspan><tspan x="65.27" y="0">00811]</tspan></text><text class="cls-4" transform="translate(165.39 99.72)"><tspan x="0" y="0">1</tspan></text><text class="cls-2" transform="translate(165.39 158.33)"><tspan x="0" y="0">H</tspan></text><text class="cls-3" transform="translate(165.39 193.39)"><tspan x="0" y="0">1s¹</tspan></text><text class="cls-3" transform="translate(165.39 217.85)"><tspan class="cls-42" x="0" y="0">h</tspan><tspan class="cls-17" x="7.73" y="0">y</tspan><tspan x="14.69" y="0">d</tspan><tspan class="cls-30" x="23.01" y="0">r</tspan><tspan x="27.45" y="0">ogen</tspan></text><circle class="cls-6" cx="293.16" cy="114.33" r="8.47"/><path class="cls-1" d="M293.25,105.86s-.06,0-.08,0v16.93s.06,0,.08,0c4.68,0,8.47-3.79,8.47-8.47s-3.79-8.47-8.47-8.47Z"/><polyline class="cls-7" points="301.5 140.08 277.59 154.03 277.59 139.98 301.5 153.93 301.71 139.98 289.76 133.01"/><polyline class="cls-7" points="301.5 153.93 289.55 159.91 289.55 133.01 277.59 139.98"/><line class="cls-7" x1="277.59" y1="154.03" x2="289.55" y2="159.91"/><line class="cls-8" x1="279.8" y1="170.86" x2="281.3" y2="170.86"/><line class="cls-9" x1="283.52" y1="170.86" x2="299.1" y2="170.86"/><line class="cls-8" x1="300.21" y1="170.86" x2="301.71" y2="170.86"/><rect class="cls-6" x="17.42" y="249.94" width="432.85" height="69.24"/><line class="cls-6" x1="17.17" y1="284.55" x2="450.52" y2="284.55"/><polyline class="cls-7" points="73.16 295.63 49.25 309.57 49.25 295.53 73.16 309.47 73.37 295.53 61.41 288.55"/><polyline class="cls-7" points="73.16 309.47 61.2 315.45 61.2 288.55 49.25 295.53"/><line class="cls-7" x1="49.25" y1="309.57" x2="61.2" y2="315.45"/><text class="cls-5" transform="translate(81.26 305.67)"><tspan class="cls-41" x="0" y="0">H</tspan><tspan class="cls-11" x="7.59" y="0">e</tspan><tspan class="cls-12" x="13.22" y="0">x</tspan><tspan x="18.04" y="0">gonal</tspan></text><text class="cls-5" transform="translate(81.26 271.31)"><tspan x="0" y="0">Othe</tspan><tspan class="cls-16" x="23.11" y="0">r</tspan><tspan x="26.42" y="0" xml:space="preserve"> nonm</tspan><tspan class="cls-35" x="55.12" y="0">e</tspan><tspan x="60.93" y="0">tals</tspan></text><text class="cls-5" transform="translate(291.02 271.51)"><tspan x="0" y="0">G</tspan><tspan class="cls-44" x="7.99" y="0">a</tspan><tspan x="13.61" y="0">s</tspan></text><text class="cls-5" transform="translate(291.02 305.7)"><tspan class="cls-13" x="0" y="0">E</tspan><tspan x="6.41" y="0">qual </tspan><tspan class="cls-31" x="28.32" y="0">r</tspan><tspan x="31.57" y="0">el</tspan><tspan class="cls-40" x="39.48" y="0">a</tspan><tspan x="45.02" y="0">ti</tspan><tspan class="cls-20" x="50.11" y="0">v</tspan><tspan x="55.08" y="0">e </tspan><tspan class="cls-37" x="63.36" y="0">s</tspan><tspan x="68.48" y="0">t</tspan><tspan class="cls-31" x="71.55" y="0">r</tspan><tspan x="74.8" y="0">ength</tspan></text><line class="cls-8" x1="261.11" y1="267.81" x2="262.61" y2="267.81"/><line class="cls-9" x1="264.83" y1="267.81" x2="280.41" y2="267.81"/><line class="cls-8" x1="281.53" y1="267.81" x2="283.03" y2="267.81"/><circle class="cls-6" cx="272.03" cy="302" r="8.47"/><path class="cls-1" d="M272.11,293.54s-.06,0-.08,0v16.93s.06,0,.08,0c4.68,0,8.47-3.79,8.47-8.47s-3.79-8.47-8.47-8.47Z"/><rect class="cls-6" x="53.09" y="259.59" width="16.44" height="16.44"/><text class="cls-5" transform="translate(337.45 81.45)"><tspan class="cls-40" x="0" y="0">a</tspan><tspan class="cls-39" x="5.53" y="0">t</tspan><tspan x="8.47" y="0">omic</tspan><tspan class="cls-22" x="31.01" y="0"> </tspan><tspan class="cls-39" x="33.2" y="0">w</tspan><tspan x="41.15" y="0">eig</tspan><tspan class="cls-37" x="55.16" y="0">h</tspan><tspan x="60.86" y="0">t</tspan></text><text class="cls-5" transform="translate(337.45 115.36)"><tspan class="cls-37" x="0" y="0">a</tspan><tspan x="5.58" y="0">cid-b</tspan><tspan class="cls-44" x="29.38" y="0">a</tspan><tspan x="35" y="0">se p</tspan><tspan class="cls-31" x="54.56" y="0">r</tspan><tspan x="57.82" y="0">operties</tspan><tspan class="cls-38" x="0" y="12.95">o</tspan><tspan class="cls-18" x="5.94" y="12.95">f</tspan><tspan x="8.61" y="12.95" xml:space="preserve"> highe</tspan><tspan class="cls-10" x="36.53" y="12.95">r</tspan><tspan class="cls-15" x="39.43" y="12.95">-</tspan><tspan class="cls-21" x="43.05" y="12.95">v</tspan><tspan x="48" y="12.95">alence </tspan><tspan class="cls-11" x="81.3" y="12.95">o</tspan><tspan x="87.11" y="12.95">xides</tspan></text><text class="cls-5" transform="translate(337.45 163.42)"><tspan x="0" y="0">cr</tspan><tspan class="cls-25" x="9.28" y="0">y</tspan><tspan class="cls-37" x="14.41" y="0">s</tspan><tspan x="19.53" y="0">tal </tspan><tspan class="cls-37" x="32.65" y="0">s</tspan><tspan x="37.77" y="0">tru</tspan><tspan class="cls-46" x="50.15" y="0">c</tspan><tspan x="55.84" y="0">tu</tspan><tspan class="cls-31" x="64.66" y="0">r</tspan><tspan x="67.92" y="0">e</tspan></text><text class="cls-5" transform="translate(337.45 197.67)"><tspan x="0" y="0">p</tspan><tspan class="cls-43" x="6.1" y="0">h</tspan><tspan class="cls-24" x="11.77" y="0">y</tspan><tspan x="16.9" y="0">sical </tspan><tspan class="cls-37" x="39.88" y="0">s</tspan><tspan x="44.99" y="0">t</tspan><tspan class="cls-40" x="48.06" y="0">a</tspan><tspan class="cls-38" x="53.6" y="0">t</tspan><tspan x="56.53" y="0">e</tspan><tspan class="cls-40" x="0" y="12.95">a</tspan><tspan x="5.53" y="12.95">t 20 °C </tspan><tspan class="cls-34" x="40.39" y="12.95">(</tspan><tspan x="42.79" y="12.95">68 °F)</tspan></text><text class="cls-5" transform="translate(41.74 81.76)"><tspan class="cls-40" x="0" y="0">a</tspan><tspan class="cls-39" x="5.53" y="0">t</tspan><tspan x="8.47" y="0">omic</tspan><tspan x="0" y="12.95">numbe</tspan><tspan class="cls-16" x="32.22" y="12.95">r</tspan></text><text class="cls-5" transform="translate(41.74 130.67)"><tspan class="cls-38" x="0" y="0">s</tspan><tspan x="5.04" y="0">ymbol</tspan></text><text class="cls-5" transform="translate(41.74 166.44)"><tspan x="0" y="0">ele</tspan><tspan class="cls-45" x="13.8" y="0">c</tspan><tspan x="19.48" y="0">t</tspan><tspan class="cls-31" x="22.55" y="0">r</tspan><tspan x="25.81" y="0">on</tspan><tspan x="0" y="12.95">co</tspan><tspan class="cls-35" x="11.79" y="12.95">n</tspan><tspan x="17.47" y="12.95">figu</tspan><tspan class="cls-14" x="34.27" y="12.95">r</tspan><tspan class="cls-40" x="37.6" y="12.95">a</tspan><tspan x="43.13" y="12.95">tion</tspan></text><text class="cls-5" transform="translate(41.74 215.5)"><tspan x="0" y="0">name</tspan></text></svg>