<?xml version="1.0" encoding="UTF-8"?><svg id="Layer_6" xmlns="http://www.w3.org/2000/svg" viewBox="0 0 468 432"><defs><style>.cls-1,.cls-2{stroke-width:1.2px;}.cls-1,.cls-2,.cls-3{stroke:#231f20;stroke-miterlimit:10;}.cls-1,.cls-3{fill:none;}.cls-4{font-size:32px;}.cls-4,.cls-5{fill:#231f20;font-family:PPNeueMontreal-Book, 'PP Neue Montreal';}.cls-5{font-size:15px;}.cls-6{letter-spacing:0em;}.cls-7{letter-spacing:-.03em;}.cls-8{letter-spacing:-.01em;}.cls-2{fill:#fff;}.cls-9{letter-spacing:-.03em;}.cls-10{letter-spacing:-.03em;}.cls-11{letter-spacing:-.03em;}.cls-12{letter-spacing:0em;}.cls-13{letter-spacing:0em;}.cls-14{letter-spacing:0em;}.cls-15{letter-spacing:-.01em;}.cls-16{letter-spacing:-.01em;}.cls-17{letter-spacing:0em;}.cls-3{stroke-width:2.5px;}.cls-18{letter-spacing:0em;}</style></defs><circle class="cls-1" cx="234" cy="254.5" r="136.5"/><text class="cls-5" transform="translate(106.45 125.25)"><tspan class="cls-14" x="0" y="0">E</tspan><tspan x="8.98" y="0">le</tspan><tspan class="cls-18" x="19.81" y="0">c</tspan><tspan x="27.6" y="0">t</tspan><tspan class="cls-9" x="31.8" y="0">r</tspan><tspan x="36.25" y="0">on</tspan></text><text class="cls-5" transform="translate(213.09 207.41)"><tspan class="cls-13" x="0" y="0">P</tspan><tspan class="cls-9" x="8.98" y="0">r</tspan><tspan class="cls-17" x="13.44" y="0">o</tspan><tspan class="cls-16" x="21.61" y="0">t</tspan><tspan x="25.63" y="0">on</tspan></text><circle class="cls-2" cx="234" cy="253.81" r="34.37"/><line class="cls-3" x1="234" y1="235.81" x2="234" y2="271.81"/><line class="cls-3" x1="216" y1="253.81" x2="252" y2="253.81"/><circle class="cls-2" cx="132.67" cy="163.75" r="22.37"/><line class="cls-3" x1="123.18" y1="163.75" x2="142.18" y2="163.75"/><text class="cls-4" transform="translate(128.34 68.44)"><tspan class="cls-12" x="0" y="0">H</tspan><tspan class="cls-8" x="22.3" y="0">y</tspan><tspan x="37.22" y="0">d</tspan><tspan class="cls-10" x="55.04" y="0">r</tspan><tspan class="cls-6" x="64.54" y="0">ogen</tspan><tspan class="cls-11" x="134.08" y="0"> </tspan><tspan class="cls-7" x="140.09" y="0">A</tspan><tspan class="cls-15" x="159.55" y="0">t</tspan><tspan class="cls-6" x="168.12" y="0">om</tspan></text></svg>