<?xml version="1.0" encoding="UTF-8"?><svg id="Layer_4" xmlns="http://www.w3.org/2000/svg" viewBox="0 0 432 432"><defs><style>.cls-1{fill:#231f20;}.cls-2{fill:none;stroke:#231f20;stroke-miterlimit:10;stroke-width:1.5px;}</style></defs><line class="cls-2" x1="35.18" y1="372.65" x2="215.65" y2="61.5"/><line class="cls-2" x1="396.52" y1="372.83" x2="216.06" y2="61.68"/><line class="cls-2" x1="35.5" y1="372.5" x2="398.5" y2="372.5"/><line class="cls-2" x1="156.5" y1="163.5" x2="275.5" y2="163.5"/><line class="cls-2" x1="95.5" y1="268.5" x2="335.5" y2="268.5"/><line class="cls-2" x1="156.4" y1="372.32" x2="276" y2="164"/><line class="cls-2" x1="154.33" y1="372.32" x2="94.83" y2="269.26"/><line class="cls-2" x1="277.4" y1="372.32" x2="336.9" y2="269.26"/><line class="cls-2" x1="275.33" y1="372.32" x2="156" y2="164"/><circle class="cls-1" cx="215.85" cy="59" r="8.5"/><circle class="cls-1" cx="156" cy="164" r="8.5"/><circle class="cls-1" cx="276" cy="164" r="8.5"/><circle class="cls-1" cx="216" cy="269" r="8.5"/><circle class="cls-1" cx="336" cy="269" r="8.5"/><circle class="cls-1" cx="396" cy="373" r="8.5"/><circle class="cls-1" cx="156" cy="373" r="8.5"/><circle class="cls-1" cx="276" cy="373" r="8.5"/><circle class="cls-1" cx="36" cy="373" r="8.5"/><circle class="cls-1" cx="96" cy="269" r="8.5"/></svg>