<?xml version="1.0" encoding="UTF-8"?><svg id="Layer_3" xmlns="http://www.w3.org/2000/svg" viewBox="0 0 468 360"><defs><style>.cls-1{letter-spacing:.36em;}.cls-1,.cls-2,.cls-3,.cls-4{fill:#231f20;}.cls-1,.cls-3{font-size:15px;}.cls-1,.cls-3,.cls-4{font-family:PPNeueMontreal-Book, 'PP Neue Montreal';}.cls-5,.cls-6{fill:none;}.cls-5,.cls-6,.cls-7{stroke:#231f20;stroke-miterlimit:10;}.cls-5,.cls-7{stroke-width:.8px;}.cls-6{stroke-width:.5px;}.cls-4{font-size:9px;}.cls-8{letter-spacing:-.12em;}.cls-9{letter-spacing:-.12em;}.cls-10{letter-spacing:-.02em;}.cls-11{letter-spacing:-.02em;}.cls-12{letter-spacing:-.03em;}.cls-13{letter-spacing:0em;}.cls-7{fill:#fff;}.cls-14{letter-spacing:0em;}.cls-15{letter-spacing:0em;}.cls-16{letter-spacing:0em;}</style></defs><line class="cls-5" x1="31.02" y1="216" x2="72.97" y2="143.67"/><line class="cls-5" x1="115.02" y1="216.04" x2="73.07" y2="143.71"/><line class="cls-5" x1="31.1" y1="215.96" x2="115.48" y2="215.96"/><line class="cls-5" x1="59.22" y1="167.38" x2="86.89" y2="167.38"/><line class="cls-5" x1="45.04" y1="191.79" x2="100.84" y2="191.79"/><line class="cls-5" x1="59.2" y1="215.92" x2="87" y2="167.49"/><line class="cls-5" x1="58.72" y1="215.92" x2="44.89" y2="191.96"/><line class="cls-5" x1="87.33" y1="215.92" x2="101.16" y2="191.96"/><line class="cls-5" x1="86.85" y1="215.92" x2="59.11" y2="167.49"/><circle class="cls-7" cx="72.83" cy="145" r="5.25"/><circle class="cls-7" cx="72.83" cy="191.28" r="5.25"/><circle class="cls-7" cx="58.49" cy="216.41" r="5.25"/><circle class="cls-7" cx="29.87" cy="216.41" r="5.25"/><circle class="cls-7" cx="87.1" cy="216.41" r="5.25"/><circle class="cls-7" cx="115.72" cy="216.41" r="5.25"/><circle class="cls-7" cx="100.9" cy="191.28" r="5.25"/><circle class="cls-7" cx="44.44" cy="191.28" r="5.25"/><circle class="cls-7" cx="58.49" cy="167.83" r="5.25"/><circle class="cls-7" cx="87.1" cy="167.83" r="5.25"/><text class="cls-3" transform="translate(143.45 83.36)"><tspan x="0" y="0">1</tspan></text><text class="cls-4" transform="translate(230.9 57.17)"><tspan class="cls-14" x="0" y="0">D</tspan><tspan x="6.15" y="0">im°</tspan></text><text class="cls-4" transform="translate(269.16 57.17)"><tspan x="0" y="0">Shapes</tspan></text><text class="cls-4" transform="translate(339.74 57.17)"><tspan x="0" y="0">Geom</tspan><tspan class="cls-15" x="23.54" y="0">e</tspan><tspan x="28.31" y="0">tric Con</tspan><tspan class="cls-13" x="58.08" y="0">s</tspan><tspan x="62.28" y="0">tru</tspan><tspan class="cls-16" x="72.45" y="0">c</tspan><tspan x="77.12" y="0">tion</tspan></text><text class="cls-4" transform="translate(274.12 96.17)"><tspan class="cls-10" x="0" y="0">P</tspan><tspan x="5.23" y="0">oi</tspan><tspan class="cls-13" x="11.88" y="0">n</tspan><tspan x="16.56" y="0">t</tspan></text><text class="cls-4" transform="translate(275.58 165.17)"><tspan x="0" y="0">Line</tspan></text><text class="cls-4" transform="translate(268.82 235.17)"><tspan class="cls-8" x="0" y="0">T</tspan><tspan x="4.23" y="0">riangle</tspan></text><text class="cls-4" transform="translate(260.77 309.17)"><tspan class="cls-9" x="0" y="0">T</tspan><tspan class="cls-15" x="4.18" y="0">e</tspan><tspan x="8.95" y="0">t</tspan><tspan class="cls-11" x="11.47" y="0">r</tspan><tspan x="14.2" y="0">ahed</tspan><tspan class="cls-12" x="33.4" y="0">r</tspan><tspan x="36.07" y="0">on</tspan></text><text class="cls-4" transform="translate(232.41 81.18)"><tspan x="0" y="0">OD</tspan></text><text class="cls-4" transform="translate(234.63 140.7)"><tspan x="0" y="0">1D</tspan></text><text class="cls-4" transform="translate(233.55 209.01)"><tspan x="0" y="0">2D</tspan></text><text class="cls-4" transform="translate(233.39 279.31)"><tspan x="0" y="0">3D</tspan></text><text class="cls-3" transform="translate(188.98 83.13)"><tspan x="0" y="0">①</tspan></text><text class="cls-3" transform="translate(143.61 143.04)"><tspan x="0" y="0">2</tspan></text><text class="cls-3" transform="translate(143.61 210.95)"><tspan x="0" y="0">3</tspan></text><text class="cls-3" transform="translate(143.61 281.6)"><tspan x="0" y="0">4</tspan></text><line class="cls-6" x1="165.88" y1="101.75" x2="443.38" y2="101.75"/><line class="cls-6" x1="165.88" y1="171.25" x2="443.38" y2="171.25"/><line class="cls-6" x1="165.88" y1="240.75" x2="443.38" y2="240.75"/><line class="cls-6" x1="228.38" y1="50.25" x2="228.38" y2="309.75"/><line class="cls-6" x1="250.38" y1="50.25" x2="250.38" y2="309.75"/><line class="cls-6" x1="316.38" y1="50.25" x2="316.5" y2="309.25"/><path class="cls-2" d="M175.41,137.64c0-3.38,2.22-5.56,5.59-5.56s5.58,2.19,5.58,5.56-2.22,5.55-5.58,5.55-5.59-2.19-5.59-5.55ZM185.61,137.64c0-2.85-1.84-4.71-4.6-4.71s-4.62,1.86-4.62,4.71,1.83,4.7,4.62,4.7,4.6-1.86,4.6-4.7ZM180.66,136.12c-.28.27-.78.3-1.27.3v-.76c.94-.01,1.41-.33,1.44-1.08h.79v6.09h-.96v-4.54Z"/><path class="cls-2" d="M204.41,137.64c0-3.38,2.22-5.56,5.59-5.56s5.58,2.19,5.58,5.56-2.22,5.55-5.58,5.55-5.59-2.19-5.59-5.55ZM214.61,137.64c0-2.85-1.84-4.71-4.6-4.71s-4.62,1.86-4.62,4.71,1.83,4.7,4.62,4.7,4.6-1.86,4.6-4.7ZM207.78,140.67c0-1.09.58-1.79,1.52-2.4.98-.66,1.88-1.02,1.88-1.98,0-.55-.3-1.05-1.06-1.05-.85,0-1.26.59-1.26,1.44h-.93c0-1.21.73-2.24,2.23-2.24,1.17,0,2,.65,2,1.79s-.84,1.7-1.73,2.27c-.6.38-1.23.75-1.4,1.37v.03h3.07v.78h-4.32Z"/><line class="cls-5" x1="186.25" y1="136.78" x2="205.25" y2="136.78"/><path class="cls-2" d="M189.91,193.44c0-3.38,2.22-5.56,5.59-5.56s5.58,2.19,5.58,5.56-2.22,5.55-5.58,5.55-5.59-2.19-5.59-5.55ZM200.11,193.44c0-2.85-1.84-4.71-4.6-4.71s-4.62,1.86-4.62,4.71,1.83,4.7,4.62,4.7,4.6-1.86,4.6-4.7ZM195.16,191.93c-.28.27-.78.3-1.27.3v-.76c.94-.01,1.41-.33,1.44-1.08h.79v6.09h-.96v-4.54Z"/><path class="cls-2" d="M175.41,218.45c0-3.37,2.22-5.56,5.59-5.56s5.58,2.19,5.58,5.56-2.22,5.55-5.58,5.55-5.59-2.19-5.59-5.55ZM185.61,218.45c0-2.85-1.84-4.71-4.6-4.71s-4.62,1.86-4.62,4.71,1.83,4.7,4.62,4.7,4.6-1.86,4.6-4.7ZM178.78,221.48c0-1.09.58-1.79,1.52-2.4.98-.66,1.88-1.02,1.88-1.98,0-.55-.3-1.05-1.06-1.05-.85,0-1.26.58-1.26,1.44h-.93c0-1.21.73-2.23,2.23-2.23,1.17,0,2,.64,2,1.79s-.84,1.69-1.73,2.26c-.6.38-1.23.75-1.4,1.37v.03h3.07v.78h-4.32Z"/><path class="cls-2" d="M204.41,218.45c0-3.37,2.22-5.56,5.59-5.56s5.58,2.19,5.58,5.56-2.22,5.55-5.58,5.55-5.59-2.19-5.59-5.55ZM214.61,218.45c0-2.85-1.84-4.71-4.6-4.71s-4.62,1.86-4.62,4.71,1.83,4.7,4.62,4.7,4.6-1.86,4.6-4.7ZM207.66,219.41h.94c0,.87.4,1.43,1.42,1.43.89,0,1.27-.41,1.27-1.07,0-.79-.58-1.08-1.24-1.08h-.53v-.73h.5c.65,0,1.08-.3,1.08-.93,0-.55-.35-.96-1.08-.96-.92,0-1.26.51-1.26,1.16h-.93c0-1.11.77-1.95,2.25-1.95,1.05,0,1.98.6,1.98,1.67,0,.63-.31,1.08-.93,1.33v.02c.81.25,1.16.79,1.16,1.51,0,1.17-.92,1.81-2.19,1.81-1.56,0-2.44-.81-2.44-2.21Z"/><line class="cls-5" x1="186.23" y1="218.58" x2="205.23" y2="218.58"/><line class="cls-5" x1="184.28" y1="214.35" x2="193.78" y2="197.9"/><line class="cls-5" x1="207.17" y1="214.35" x2="197.67" y2="197.9"/><path class="cls-2" d="M189.83,263.64c0-3.38,2.22-5.56,5.59-5.56s5.58,2.19,5.58,5.56-2.22,5.55-5.58,5.55-5.59-2.19-5.59-5.55ZM200.03,263.64c0-2.85-1.84-4.71-4.6-4.71s-4.62,1.86-4.62,4.71,1.83,4.69,4.62,4.69,4.6-1.86,4.6-4.69ZM193.2,266.67c0-1.1.58-1.79,1.52-2.4.98-.66,1.88-1.02,1.88-1.98,0-.56-.3-1.05-1.06-1.05-.85,0-1.26.58-1.26,1.44h-.93c0-1.21.73-2.24,2.23-2.24,1.17,0,2,.65,2,1.79s-.84,1.7-1.73,2.26c-.6.38-1.23.75-1.4,1.37v.03h3.07v.78h-4.32Z"/><path class="cls-2" d="M189.83,280.64c0-3.38,2.22-5.56,5.59-5.56s5.58,2.19,5.58,5.56-2.22,5.55-5.58,5.55-5.59-2.19-5.59-5.55ZM200.03,280.64c0-2.85-1.84-4.71-4.6-4.71s-4.62,1.86-4.62,4.71,1.83,4.69,4.62,4.69,4.6-1.86,4.6-4.69ZM195.08,279.13c-.28.27-.78.3-1.27.3v-.76c.94-.02,1.41-.33,1.44-1.08h.79v6.09h-.96v-4.54Z"/><path class="cls-2" d="M175.41,288.64c0-3.38,2.22-5.56,5.59-5.56s5.58,2.19,5.58,5.56-2.22,5.55-5.58,5.55-5.59-2.19-5.59-5.55ZM185.61,288.64c0-2.85-1.84-4.71-4.6-4.71s-4.62,1.86-4.62,4.71,1.83,4.69,4.62,4.69,4.6-1.86,4.6-4.69ZM178.66,289.6h.94c0,.87.4,1.42,1.42,1.42.89,0,1.27-.41,1.27-1.06,0-.79-.58-1.08-1.24-1.08h-.53v-.74h.5c.65,0,1.08-.3,1.08-.93,0-.55-.35-.96-1.08-.96-.92,0-1.26.51-1.26,1.15h-.93c0-1.11.77-1.95,2.25-1.95,1.05,0,1.98.6,1.98,1.67,0,.63-.31,1.08-.93,1.33h0c.81.27,1.16.81,1.16,1.53,0,1.17-.92,1.82-2.19,1.82-1.56,0-2.44-.81-2.44-2.21Z"/><path class="cls-2" d="M204.41,288.64c0-3.38,2.22-5.56,5.59-5.56s5.58,2.19,5.58,5.56-2.22,5.55-5.58,5.55-5.59-2.19-5.59-5.55ZM214.61,288.64c0-2.85-1.84-4.71-4.6-4.71s-4.62,1.86-4.62,4.71,1.83,4.69,4.62,4.69,4.6-1.86,4.6-4.69ZM210.29,291.69v-1.41h-2.89v-.9l2.89-3.78h.96v3.88h.89v.79h-.89v1.41h-.96ZM208.22,289.48h2.07v-2.75l-2.07,2.75Z"/><line class="cls-5" x1="185.75" y1="288.78" x2="204.75" y2="288.78"/><line class="cls-5" x1="183.81" y1="284.55" x2="193.31" y2="268.1"/><line class="cls-5" x1="206.69" y1="284.55" x2="197.19" y2="268.1"/><line class="cls-5" x1="195.41" y1="268.78" x2="195.41" y2="275.28"/><line class="cls-5" x1="185.96" y1="286.58" x2="190.72" y2="283.63"/><line class="cls-5" x1="204.84" y1="286.58" x2="200.08" y2="283.63"/><circle class="cls-2" cx="283.5" cy="78.25" r="2.5"/><circle class="cls-2" cx="269.16" cy="137.78" r="2.5"/><circle class="cls-2" cx="298.16" cy="137.78" r="2.5"/><line class="cls-5" x1="270.66" y1="137.78" x2="296.16" y2="137.78"/><circle class="cls-2" cx="264.45" cy="292.35" r="2.5"/><circle class="cls-2" cx="302.86" cy="292.38" r="2.5"/><line class="cls-5" x1="265.4" y1="292.35" x2="301.92" y2="292.38"/><line class="cls-5" x1="264.5" y1="292.22" x2="282.27" y2="261.51"/><line class="cls-5" x1="302.53" y1="292.26" x2="284.83" y2="261.51"/><circle class="cls-2" cx="283.66" cy="260.38" r="2.5"/><line class="cls-5" x1="283.66" y1="261.67" x2="283.66" y2="281.38"/><circle class="cls-2" cx="283.66" cy="282.38" r="2.5"/><line class="cls-5" x1="265.98" y1="291.38" x2="281.98" y2="282.38"/><line class="cls-5" x1="301.34" y1="291.38" x2="285.34" y2="282.38"/><circle class="cls-2" cx="264.45" cy="222.05" r="2.5"/><circle class="cls-2" cx="302.86" cy="222.08" r="2.5"/><line class="cls-5" x1="265.4" y1="222.05" x2="301.92" y2="222.08"/><line class="cls-5" x1="264.5" y1="221.92" x2="282.27" y2="191.21"/><line class="cls-5" x1="302.53" y1="221.95" x2="284.83" y2="191.21"/><circle class="cls-2" cx="283.66" cy="190.08" r="2.5"/><text class="cls-1" transform="translate(334.97 83.36)"><tspan x="0" y="0">1 =</tspan></text><circle class="cls-2" cx="379.38" cy="78.17" r="2.5"/><text class="cls-1" transform="translate(334.97 126.41)"><tspan x="0" y="0">1 + 1 = 2</tspan></text><circle class="cls-2" cx="338.38" cy="150.25" r="2.5"/><circle class="cls-2" cx="375.89" cy="150.25" r="2.5"/><text class="cls-1" transform="translate(353.07 156.03)"><tspan x="0" y="0">+</tspan></text><text class="cls-1" transform="translate(390.58 155.63)"><tspan x="0" y="0">=</tspan></text><circle class="cls-2" cx="413.38" cy="150.25" r="2.5"/><circle class="cls-2" cx="429.38" cy="150.25" r="2.5"/><line class="cls-5" x1="414.09" y1="150.32" x2="427.38" y2="150.18"/><text class="cls-1" transform="translate(334.97 195.41)"><tspan x="0" y="0">1 + 2 = 3</tspan></text><circle class="cls-2" cx="338.38" cy="219.69" r="2.5"/><circle class="cls-2" cx="370.44" cy="219.69" r="2.5"/><circle class="cls-2" cx="386.44" cy="219.69" r="2.5"/><line class="cls-5" x1="371.16" y1="219.76" x2="384.44" y2="219.61"/><polygon class="cls-5" points="424.93 211.94 415.98 227.44 433.88 227.44 424.93 211.94"/><text class="cls-1" transform="translate(398.41 224.44)"><tspan x="0" y="0">=</tspan></text><text class="cls-1" transform="translate(350.34 224.44)"><tspan x="0" y="0">+</tspan></text><text class="cls-1" transform="translate(334.97 265.41)"><tspan x="0" y="0">1 + 3 = 4</tspan></text><circle class="cls-2" cx="338.38" cy="287.81" r="2.5"/><polygon class="cls-5" points="378.39 280.06 369.44 295.56 387.34 295.56 378.39 280.06"/><polygon class="cls-5" points="424.87 280.06 415.92 295.56 433.82 295.56 424.87 280.06"/><line class="cls-5" x1="424.82" y1="281.05" x2="424.82" y2="290.92"/><line class="cls-5" x1="415.88" y1="295.43" x2="424.82" y2="290.43"/><line class="cls-5" x1="433.88" y1="295.43" x2="424.82" y2="290.43"/><text class="cls-1" transform="translate(397.56 292.57)"><tspan x="0" y="0">=</tspan></text><text class="cls-1" transform="translate(351.09 292.57)"><tspan x="0" y="0">+</tspan></text></svg>