<?xml version="1.0" encoding="UTF-8"?><svg id="Layer_2" xmlns="http://www.w3.org/2000/svg" viewBox="0 0 468 324"><defs><style>.cls-1,.cls-2{fill:#231f20;}.cls-2{font-family:PPNeueMontreal-Book, 'PP Neue Montreal';font-size:29.91px;}.cls-3{letter-spacing:-.02em;}.cls-4{letter-spacing:-.03em;}.cls-5{fill:#fff;stroke:#231f20;stroke-miterlimit:10;stroke-width:.8px;}</style></defs><rect class="cls-5" x="22.79" y="33.5" width="422.41" height="257"/><path class="cls-1" d="M119.06,76.14v-21.38h2.18v21.38h-2.18Z"/><path class="cls-1" d="M136.11,54.75h1.94v21.38h-1.94v-2.48h-.06c-.87,1.5-2.48,2.87-5.14,2.87-3.71,0-6.7-2.99-6.7-8.02s2.99-7.99,6.7-7.99c2.66,0,4.25,1.32,5.14,2.93h.06v-8.7ZM136.11,68.51c0-3.83-2.03-6.28-4.96-6.28-3.17,0-4.9,2.87-4.9,6.28s1.73,6.31,4.9,6.31c2.93,0,4.96-2.45,4.96-6.31Z"/><path class="cls-1" d="M154.98,68.9h-12.08c.03,3.08,1.67,5.98,5.26,5.98,3.14,0,4.37-2.15,4.67-3.41h1.97c-.75,2.78-2.84,5.08-6.67,5.08-4.67,0-7.27-3.41-7.27-8.04,0-4.88,2.87-8.02,7.27-8.02s6.88,3.08,6.88,7.33c0,.42,0,.84-.03,1.08ZM152.94,67.19c0-2.72-1.76-5.02-4.9-5.02-2.96,0-4.99,2.18-5.14,5.02h10.05Z"/><path class="cls-1" d="M169.96,65.43v10.71h-1.94v-10.29c0-1.94-.9-3.62-3.53-3.62-2.9,0-4.82,2.03-4.82,4.28v9.63h-1.94v-15.25h1.94v2.18h.06c.87-1.26,2.51-2.54,5.23-2.54s4.99,1.53,4.99,4.91Z"/><path class="cls-1" d="M179.14,62.59h-3.08v9.63c0,1.88.42,2.33,1.91,2.33.48,0,.72-.03,1.17-.06v1.65c-.6.09-.96.12-1.44.12-2.21,0-3.59-.75-3.59-4.07v-9.6h-2.24v-1.7h2.24v-5.08h1.94v5.08h3.08v1.7Z"/><path class="cls-1" d="M181.35,57.83v-2.51h2.51v2.51h-2.51ZM181.65,76.14v-15.25h1.94v15.25h-1.94Z"/><path class="cls-1" d="M193.05,62.59h-3.08v9.63c0,1.88.42,2.33,1.91,2.33.48,0,.72-.03,1.17-.06v1.65c-.6.09-.96.12-1.44.12-2.21,0-3.59-.75-3.59-4.07v-9.6h-2.24v-1.7h2.24v-5.08h1.94v5.08h3.08v1.7Z"/><path class="cls-1" d="M195.44,81.37v-1.67c.45.06.69.09,1.17.09,1.44,0,2.6-.93,3.44-3.74l-6.16-15.16h2.15l4.96,12.71h.06l4.73-12.71h2.09l-6.1,15.7c-1.5,3.8-2.84,4.9-4.88,4.9-.48,0-.84-.03-1.47-.12Z"/><path class="cls-1" d="M229.68,68.51c0,4.99-2.99,7.99-6.73,7.99-2.66,0-4.25-1.32-5.14-2.93h-.06v7.87h-1.94v-20.55h1.94v2.45h.06c.9-1.47,2.48-2.84,5.14-2.84,3.74,0,6.73,2.99,6.73,8.02ZM227.65,68.51c0-3.44-1.73-6.31-4.9-6.31-2.93,0-4.99,2.45-4.99,6.31s2.06,6.28,4.99,6.28c3.17,0,4.9-2.87,4.9-6.28Z"/><path class="cls-1" d="M240.12,60.61v1.91c-.3-.06-.63-.09-.93-.09-2.75,0-4.79,2.21-4.79,5.17v8.52h-1.94v-15.25h1.94v3.11h.06c.78-2,2.18-3.47,4.34-3.47.54,0,.96.03,1.32.09Z"/><path class="cls-1" d="M240.51,68.54c0-4.76,2.75-8.05,7.33-8.05s7.33,3.29,7.33,8.05-2.75,8.01-7.33,8.01-7.33-3.29-7.33-8.01ZM253.13,68.54c0-3.53-1.73-6.34-5.29-6.34s-5.29,2.81-5.29,6.34,1.74,6.31,5.29,6.31,5.29-2.81,5.29-6.31Z"/><path class="cls-1" d="M271.79,68.51c0,4.99-2.99,7.99-6.73,7.99-2.66,0-4.25-1.32-5.14-2.93h-.06v7.87h-1.94v-20.55h1.94v2.45h.06c.9-1.47,2.48-2.84,5.14-2.84,3.74,0,6.73,2.99,6.73,8.02ZM269.75,68.51c0-3.44-1.73-6.31-4.9-6.31-2.93,0-5,2.45-5,6.31s2.06,6.28,5,6.28c3.17,0,4.9-2.87,4.9-6.28Z"/><path class="cls-1" d="M287.88,68.9h-12.08c.03,3.08,1.67,5.98,5.26,5.98,3.14,0,4.37-2.15,4.67-3.41h1.97c-.75,2.78-2.84,5.08-6.67,5.08-4.67,0-7.27-3.41-7.27-8.04,0-4.88,2.87-8.02,7.27-8.02s6.88,3.08,6.88,7.33c0,.42,0,.84-.03,1.08ZM285.84,67.19c0-2.72-1.76-5.02-4.9-5.02-2.96,0-5,2.18-5.14,5.02h10.05Z"/><path class="cls-1" d="M298.28,60.61v1.91c-.3-.06-.63-.09-.93-.09-2.75,0-4.79,2.21-4.79,5.17v8.52h-1.94v-15.25h1.94v3.11h.06c.78-2,2.18-3.47,4.34-3.47.54,0,.96.03,1.32.09Z"/><path class="cls-1" d="M306.21,62.59h-3.08v9.63c0,1.88.42,2.33,1.91,2.33.48,0,.72-.03,1.17-.06v1.65c-.6.09-.96.12-1.44.12-2.21,0-3.59-.75-3.59-4.07v-9.6h-2.24v-1.7h2.24v-5.08h1.94v5.08h3.08v1.7Z"/><path class="cls-1" d="M308.6,81.37v-1.67c.45.06.69.09,1.17.09,1.44,0,2.6-.93,3.44-3.74l-6.16-15.16h2.15l4.96,12.71h.06l4.73-12.71h2.09l-6.1,15.7c-1.5,3.8-2.84,4.9-4.88,4.9-.48,0-.84-.03-1.47-.12Z"/><path class="cls-1" d="M328.12,68.54c0-4.76,2.75-8.05,7.33-8.05s7.33,3.29,7.33,8.05-2.75,8.01-7.33,8.01-7.33-3.29-7.33-8.01ZM340.75,68.54c0-3.53-1.73-6.34-5.29-6.34s-5.29,2.81-5.29,6.34,1.74,6.31,5.29,6.31,5.29-2.81,5.29-6.31Z"/><path class="cls-1" d="M348.04,58.61v2.27h3.02v1.7h-3.02v13.55h-1.94v-13.55h-2.15v-1.7h2.15v-2.24c0-3.32,1.32-4.07,3.5-4.07.42,0,.78.03,1.47.12v1.65c-.54-.03-.78-.06-1.2-.06-1.47,0-1.82.45-1.82,2.33Z"/><path class="cls-1" d="M174.36,98.14v10.71h-1.94v-10.29c0-1.91-.45-3.62-2.96-3.62-2.69,0-4.28,2.06-4.28,4.28v9.63h-1.94v-10.29c0-1.91-.45-3.62-2.99-3.62s-4.28,2.06-4.28,4.28v9.63h-1.94v-15.25h1.94v2.15h.06c.81-1.23,2.24-2.51,4.64-2.51,2.15,0,3.53.99,4.1,2.81h.06c.99-1.53,2.63-2.81,5.05-2.81,2.9,0,4.49,1.73,4.49,4.91Z"/><path class="cls-1" d="M187.99,93.59h1.94v15.25h-1.94v-2.15h-.06c-.87,1.26-2.51,2.51-5.23,2.51s-4.99-1.53-4.99-4.9v-10.71h1.94v10.29c0,1.94.9,3.62,3.53,3.62,2.9,0,4.81-2.03,4.81-4.28v-9.63Z"/><path class="cls-1" d="M193.52,108.85v-21.38h1.94v21.38h-1.94Z"/><path class="cls-1" d="M204.92,95.3h-3.08v9.63c0,1.88.42,2.33,1.91,2.33.48,0,.72-.03,1.17-.06v1.65c-.6.09-.96.12-1.44.12-2.21,0-3.59-.75-3.59-4.07v-9.6h-2.24v-1.7h2.24v-5.08h1.94v5.08h3.08v1.7Z"/><path class="cls-1" d="M207.13,90.54v-2.51h2.51v2.51h-2.51ZM207.43,108.85v-15.25h1.94v15.25h-1.94Z"/><path class="cls-1" d="M226.84,101.22c0,4.99-2.99,7.99-6.73,7.99-2.66,0-4.25-1.32-5.14-2.93h-.06v7.87h-1.94v-20.55h1.94v2.45h.06c.9-1.47,2.48-2.84,5.14-2.84,3.74,0,6.73,2.99,6.73,8.02ZM224.81,101.22c0-3.44-1.73-6.31-4.9-6.31-2.93,0-4.99,2.45-4.99,6.31s2.06,6.28,4.99,6.28c3.17,0,4.9-2.87,4.9-6.28Z"/><path class="cls-1" d="M229.62,108.85v-21.38h1.94v21.38h-1.94Z"/><path class="cls-1" d="M234.85,90.54v-2.51h2.51v2.51h-2.51ZM235.15,108.85v-15.25h1.94v15.25h-1.94Z"/><path class="cls-1" d="M239.85,101.22c0-4.75,2.93-7.99,7.3-7.99,3.71,0,6.22,2.48,6.55,5.71h-2.03c-.12-1.7-1.35-4.01-4.52-4.01-3.74,0-5.26,3.17-5.26,6.28s1.53,6.34,5.26,6.34c3.2,0,4.4-2.3,4.52-4.16h2.03c-.21,3.29-2.84,5.83-6.55,5.83-4.37,0-7.3-3.23-7.3-8.02Z"/><path class="cls-1" d="M255.49,104.99c0-3.29,2.33-4.34,6.28-5.02,2.51-.45,4.13-.63,4.13-2.45,0-1.56-1.02-2.6-3.47-2.6-2.96,0-4.01,1.05-4.16,3.29h-2.06c.15-2.69,1.85-4.99,6.28-4.99,2.81,0,5.29,1.2,5.29,4.85v7.63c0,1.23.18,1.79.87,1.79.12,0,.24,0,.42-.03v1.41c-.33.06-.66.12-1.02.12-1.29,0-2.03-.51-2.15-2.42h-.06c-1.05,1.73-2.87,2.69-5.35,2.69-3.05,0-4.99-1.7-4.99-4.25ZM265.89,103.13v-2.84c-.45.63-2.06.99-3.89,1.29-2.96.54-4.49,1.29-4.49,3.23,0,1.76.99,2.72,3.2,2.72,3.11,0,5.17-1.65,5.17-4.4Z"/><path class="cls-1" d="M277.26,95.3h-3.08v9.63c0,1.88.42,2.33,1.91,2.33.48,0,.72-.03,1.17-.06v1.65c-.6.09-.96.12-1.44.12-2.21,0-3.59-.75-3.59-4.07v-9.6h-2.24v-1.7h2.24v-5.08h1.94v5.08h3.08v1.7Z"/><path class="cls-1" d="M279.47,90.54v-2.51h2.51v2.51h-2.51ZM279.77,108.85v-15.25h1.94v15.25h-1.94Z"/><path class="cls-1" d="M284.46,101.25c0-4.76,2.75-8.05,7.33-8.05s7.33,3.29,7.33,8.05-2.75,8.01-7.33,8.01-7.33-3.29-7.33-8.01ZM297.08,101.25c0-3.53-1.74-6.34-5.29-6.34s-5.29,2.81-5.29,6.34,1.73,6.31,5.29,6.31,5.29-2.81,5.29-6.31Z"/><path class="cls-1" d="M314.1,98.14v10.71h-1.94v-10.29c0-1.94-.9-3.62-3.53-3.62-2.9,0-4.82,2.03-4.82,4.28v9.63h-1.94v-15.25h1.94v2.18h.06c.87-1.26,2.51-2.54,5.23-2.54s4.99,1.53,4.99,4.91Z"/><text class="cls-2" transform="translate(67.16 171.8)"><tspan class="cls-4" x="0" y="0">A</tspan><tspan x="18.06" y="0" xml:space="preserve"> numbe</tspan><tspan class="cls-3" x="112.53" y="0">r</tspan><tspan x="121.56" y="0" xml:space="preserve"> × 1 = the numbe</tspan><tspan class="cls-3" x="323.96" y="0">r</tspan></text><text class="cls-2" transform="translate(68.51 265.78)"><tspan x="0" y="0">1 × a numbe</tspan><tspan class="cls-3" x="148.39" y="0">r</tspan><tspan x="157.42" y="0" xml:space="preserve"> = the numbe</tspan><tspan class="cls-3" x="321.27" y="0">r</tspan></text></svg>