<?xml version="1.0" encoding="UTF-8"?><svg id="Layer_3" xmlns="http://www.w3.org/2000/svg" viewBox="0 0 468 468"><defs><style>.cls-1{fill:none;stroke:#231f20;stroke-miterlimit:10;stroke-width:.8px;}.cls-2{fill:#231f20;font-family:PPNeueMontreal-Book, 'PP Neue Montreal';font-size:20px;}.cls-3{letter-spacing:0em;}.cls-4{letter-spacing:-.09em;}.cls-5{letter-spacing:-.02em;}.cls-6{letter-spacing:-.02em;}.cls-7{letter-spacing:-.02em;}.cls-8{letter-spacing:-.01em;}.cls-9{letter-spacing:-.01em;}.cls-10{letter-spacing:-.01em;}.cls-11{letter-spacing:0em;}.cls-12{letter-spacing:0em;}.cls-13{letter-spacing:0em;}.cls-14{letter-spacing:0em;}.cls-15{letter-spacing:0em;}.cls-16{letter-spacing:0em;}</style></defs><text class="cls-2" transform="translate(50.98 60.68)"><tspan x="0" y="0">1</tspan></text><text class="cls-2" transform="translate(88.43 60.82)"><tspan x="0" y="0">2</tspan></text><text class="cls-2" transform="translate(127.92 60.82)"><tspan x="0" y="0">3</tspan></text><text class="cls-2" transform="translate(168 60.82)"><tspan x="0" y="0">4</tspan></text><text class="cls-2" transform="translate(207.89 60.82)"><tspan x="0" y="0">5</tspan></text><text class="cls-2" transform="translate(247.52 60.82)"><tspan x="0" y="0">6</tspan></text><text class="cls-2" transform="translate(288.14 60.82)"><tspan x="0" y="0">7</tspan></text><text class="cls-2" transform="translate(327.1 60.82)"><tspan x="0" y="0">8</tspan></text><text class="cls-2" transform="translate(367.05 60.82)"><tspan x="0" y="0">9</tspan></text><text class="cls-2" transform="translate(403.45 60.82)"><tspan x="0" y="0">10</tspan></text><text class="cls-2" transform="translate(47.89 100.68)"><tspan x="0" y="0">11</tspan></text><text class="cls-2" transform="translate(85.34 100.82)"><tspan x="0" y="0">12</tspan></text><text class="cls-2" transform="translate(124.83 100.82)"><tspan x="0" y="0">13</tspan></text><text class="cls-2" transform="translate(164.91 100.82)"><tspan x="0" y="0">14</tspan></text><text class="cls-2" transform="translate(204.8 100.82)"><tspan x="0" y="0">15</tspan></text><text class="cls-2" transform="translate(244.43 100.82)"><tspan x="0" y="0">16</tspan></text><text class="cls-2" transform="translate(285.05 100.82)"><tspan x="0" y="0">17</tspan></text><text class="cls-2" transform="translate(324.01 100.82)"><tspan x="0" y="0">18</tspan></text><text class="cls-2" transform="translate(363.96 100.82)"><tspan x="0" y="0">19</tspan></text><text class="cls-2" transform="translate(401.05 100.82)"><tspan x="0" y="0">20</tspan></text><text class="cls-2" transform="translate(45.49 140.68)"><tspan x="0" y="0">21</tspan></text><text class="cls-2" transform="translate(82.94 140.82)"><tspan x="0" y="0">22</tspan></text><text class="cls-2" transform="translate(122.43 140.82)"><tspan x="0" y="0">23</tspan></text><text class="cls-2" transform="translate(162.73 140.82)"><tspan class="cls-5" x="0" y="0">2</tspan><tspan x="10.54" y="0">4</tspan></text><text class="cls-2" transform="translate(202.4 140.82)"><tspan x="0" y="0">25</tspan></text><text class="cls-2" transform="translate(242.03 140.82)"><tspan x="0" y="0">26</tspan></text><text class="cls-2" transform="translate(282.67 140.82)"><tspan class="cls-16" x="0" y="0">2</tspan><tspan x="10.94" y="0">7</tspan></text><text class="cls-2" transform="translate(321.61 140.82)"><tspan x="0" y="0">28</tspan></text><text class="cls-2" transform="translate(361.56 140.82)"><tspan x="0" y="0">29</tspan></text><text class="cls-2" transform="translate(400.69 140.82)"><tspan x="0" y="0">30</tspan></text><text class="cls-2" transform="translate(45.13 180.68)"><tspan x="0" y="0">31</tspan></text><text class="cls-2" transform="translate(82.58 180.82)"><tspan x="0" y="0">32</tspan></text><text class="cls-2" transform="translate(122.07 180.82)"><tspan x="0" y="0">33</tspan></text><text class="cls-2" transform="translate(162.15 180.82)"><tspan x="0" y="0">34</tspan></text><text class="cls-2" transform="translate(202.04 180.82)"><tspan x="0" y="0">35</tspan></text><text class="cls-2" transform="translate(241.67 180.82)"><tspan x="0" y="0">36</tspan></text><text class="cls-2" transform="translate(282.38 180.82)"><tspan class="cls-12" x="0" y="0">3</tspan><tspan x="11.52" y="0">7</tspan></text><text class="cls-2" transform="translate(321.25 180.82)"><tspan x="0" y="0">38</tspan></text><text class="cls-2" transform="translate(361.2 180.82)"><tspan x="0" y="0">39</tspan></text><text class="cls-2" transform="translate(400.93 180.82)"><tspan x="0" y="0">40</tspan></text><text class="cls-2" transform="translate(45.5 220.68)"><tspan class="cls-9" x="0" y="0">4</tspan><tspan x="10.96" y="0">1</tspan></text><text class="cls-2" transform="translate(82.86 220.82)"><tspan class="cls-11" x="0" y="0">4</tspan><tspan x="11.14" y="0">2</tspan></text><text class="cls-2" transform="translate(122.31 220.82)"><tspan x="0" y="0">43</tspan></text><text class="cls-2" transform="translate(162.39 220.82)"><tspan x="0" y="0">44</tspan></text><text class="cls-2" transform="translate(202.28 220.82)"><tspan x="0" y="0">45</tspan></text><text class="cls-2" transform="translate(241.91 220.82)"><tspan x="0" y="0">46</tspan></text><text class="cls-2" transform="translate(282.68 220.82)"><tspan class="cls-8" x="0" y="0">4</tspan><tspan x="10.92" y="0">7</tspan></text><text class="cls-2" transform="translate(321.49 220.82)"><tspan x="0" y="0">48</tspan></text><text class="cls-2" transform="translate(361.44 220.82)"><tspan x="0" y="0">49</tspan></text><text class="cls-2" transform="translate(400.97 220.82)"><tspan x="0" y="0">50</tspan></text><text class="cls-2" transform="translate(45.49 260.68)"><tspan class="cls-15" x="0" y="0">5</tspan><tspan x="10.98" y="0">1</tspan></text><text class="cls-2" transform="translate(82.86 260.82)"><tspan x="0" y="0">52</tspan></text><text class="cls-2" transform="translate(122.35 260.82)"><tspan x="0" y="0">53</tspan></text><text class="cls-2" transform="translate(162.43 260.82)"><tspan x="0" y="0">54</tspan></text><text class="cls-2" transform="translate(202.32 260.82)"><tspan x="0" y="0">55</tspan></text><text class="cls-2" transform="translate(241.95 260.82)"><tspan x="0" y="0">56</tspan></text><text class="cls-2" transform="translate(282.57 260.82)"><tspan x="0" y="0">57</tspan></text><text class="cls-2" transform="translate(321.53 260.82)"><tspan x="0" y="0">58</tspan></text><text class="cls-2" transform="translate(361.48 260.82)"><tspan x="0" y="0">59</tspan></text><text class="cls-2" transform="translate(400.75 260.82)"><tspan x="0" y="0">60</tspan></text><text class="cls-2" transform="translate(45.19 300.68)"><tspan x="0" y="0">61</tspan></text><text class="cls-2" transform="translate(82.64 300.82)"><tspan x="0" y="0">62</tspan></text><text class="cls-2" transform="translate(122.13 300.82)"><tspan x="0" y="0">63</tspan></text><text class="cls-2" transform="translate(162.21 300.82)"><tspan x="0" y="0">64</tspan></text><text class="cls-2" transform="translate(202.1 300.82)"><tspan x="0" y="0">65</tspan></text><text class="cls-2" transform="translate(241.73 300.82)"><tspan x="0" y="0">66</tspan></text><text class="cls-2" transform="translate(282.43 300.82)"><tspan class="cls-15" x="0" y="0">6</tspan><tspan class="cls-3" x="11.42" y="0">7</tspan></text><text class="cls-2" transform="translate(321.31 300.82)"><tspan x="0" y="0">68</tspan></text><text class="cls-2" transform="translate(361.26 300.82)"><tspan x="0" y="0">69</tspan></text><text class="cls-2" transform="translate(401.77 300.82)"><tspan class="cls-7" x="0" y="0">7</tspan><tspan x="9.54" y="0">0</tspan></text><text class="cls-2" transform="translate(45.97 340.68)"><tspan x="0" y="0">71</tspan></text><text class="cls-2" transform="translate(83.52 340.82)"><tspan class="cls-13" x="0" y="0">7</tspan><tspan x="9.82" y="0">2</tspan></text><text class="cls-2" transform="translate(123 340.82)"><tspan class="cls-12" x="0" y="0">7</tspan><tspan x="9.84" y="0">3</tspan></text><text class="cls-2" transform="translate(163.87 340.82)"><tspan class="cls-4" x="0" y="0">7</tspan><tspan x="8.26" y="0">4</tspan></text><text class="cls-2" transform="translate(203.02 340.82)"><tspan class="cls-10" x="0" y="0">7</tspan><tspan x="9.74" y="0">5</tspan></text><text class="cls-2" transform="translate(242.75 340.82)"><tspan class="cls-6" x="0" y="0">7</tspan><tspan x="9.54" y="0">6</tspan></text><text class="cls-2" transform="translate(283.13 340.82)"><tspan x="0" y="0">77</tspan></text><text class="cls-2" transform="translate(322.24 340.82)"><tspan class="cls-8" x="0" y="0">7</tspan><tspan x="9.72" y="0">8</tspan></text><text class="cls-2" transform="translate(362.11 340.82)"><tspan class="cls-14" x="0" y="0">7</tspan><tspan x="9.88" y="0">9</tspan></text><text class="cls-2" transform="translate(400.64 340.82)"><tspan x="0" y="0">80</tspan></text><text class="cls-2" transform="translate(45.08 380.68)"><tspan x="0" y="0">81</tspan></text><text class="cls-2" transform="translate(82.53 380.82)"><tspan x="0" y="0">82</tspan></text><text class="cls-2" transform="translate(122.02 380.82)"><tspan x="0" y="0">83</tspan></text><text class="cls-2" transform="translate(162.1 380.82)"><tspan x="0" y="0">84</tspan></text><text class="cls-2" transform="translate(201.99 380.82)"><tspan x="0" y="0">85</tspan></text><text class="cls-2" transform="translate(241.62 380.82)"><tspan x="0" y="0">86</tspan></text><text class="cls-2" transform="translate(282.34 380.82)"><tspan class="cls-13" x="0" y="0">8</tspan><tspan x="11.6" y="0">7</tspan></text><text class="cls-2" transform="translate(321.2 380.82)"><tspan x="0" y="0">88</tspan></text><text class="cls-2" transform="translate(361.15 380.82)"><tspan x="0" y="0">89</tspan></text><text class="cls-2" transform="translate(400.74 380.82)"><tspan x="0" y="0">90</tspan></text><text class="cls-2" transform="translate(45.18 419.68)"><tspan x="0" y="0">91</tspan></text><text class="cls-2" transform="translate(82.63 419.82)"><tspan x="0" y="0">92</tspan></text><text class="cls-2" transform="translate(122.12 419.82)"><tspan x="0" y="0">93</tspan></text><text class="cls-2" transform="translate(162.2 419.82)"><tspan x="0" y="0">94</tspan></text><text class="cls-2" transform="translate(202.09 419.82)"><tspan x="0" y="0">95</tspan></text><text class="cls-2" transform="translate(241.72 419.82)"><tspan x="0" y="0">96</tspan></text><text class="cls-2" transform="translate(282.49 419.82)"><tspan class="cls-8" x="0" y="0">9</tspan><tspan x="11.3" y="0">7</tspan></text><text class="cls-2" transform="translate(321.3 419.82)"><tspan x="0" y="0">98</tspan></text><text class="cls-2" transform="translate(361.25 419.82)"><tspan x="0" y="0">99</tspan></text><text class="cls-2" transform="translate(397.3 419.82)"><tspan x="0" y="0">100</tspan></text><line class="cls-1" x1="35.57" y1="74.26" x2="74.07" y2="35.76"/><line class="cls-1" x1="34.52" y1="34.74" x2="73.02" y2="73.24"/><rect class="cls-1" x="34.57" y="35.26" width="398" height="398"/><line class="cls-1" x1="73.57" y1="35.26" x2="73.57" y2="433.26"/><line class="cls-1" x1="233.07" y1="35.26" x2="233.07" y2="433.26"/><line class="cls-1" x1="113.45" y1="35.26" x2="113.45" y2="433.26"/><line class="cls-1" x1="153.32" y1="35.26" x2="153.32" y2="433.26"/><line class="cls-1" x1="193.2" y1="35.26" x2="193.2" y2="433.26"/><line class="cls-1" x1="272.95" y1="35.26" x2="272.95" y2="433.26"/><line class="cls-1" x1="312.82" y1="35.26" x2="312.82" y2="433.26"/><line class="cls-1" x1="352.7" y1="35.26" x2="352.7" y2="433.26"/><line class="cls-1" x1="392.57" y1="35.26" x2="392.57" y2="433.26"/><line class="cls-1" x1="35.48" y1="393.39" x2="433.48" y2="393.39"/><line class="cls-1" x1="35.48" y1="233.89" x2="433.48" y2="233.89"/><line class="cls-1" x1="35.48" y1="353.51" x2="433.48" y2="353.51"/><line class="cls-1" x1="35.48" y1="313.64" x2="433.48" y2="313.64"/><line class="cls-1" x1="35.48" y1="273.76" x2="433.48" y2="273.76"/><line class="cls-1" x1="35.48" y1="194.01" x2="433.48" y2="194.01"/><line class="cls-1" x1="35.48" y1="154.14" x2="433.48" y2="154.14"/><line class="cls-1" x1="35.48" y1="114.26" x2="433.48" y2="114.26"/><line class="cls-1" x1="35.48" y1="74.39" x2="433.48" y2="74.39"/></svg>