<?xml version="1.0" encoding="UTF-8"?><svg id="Layer_2" xmlns="http://www.w3.org/2000/svg" viewBox="0 0 468 360"><defs><style>.cls-1,.cls-2,.cls-3{fill:#231f20;}.cls-4{stroke-width:.5px;}.cls-4,.cls-5{fill:none;stroke:#231f20;stroke-miterlimit:10;}.cls-5{stroke-width:.65px;}.cls-2{font-size:11px;}.cls-2,.cls-3{font-family:PPNeueMontreal-Book, 'PP Neue Montreal';}.cls-3{font-size:14px;}.cls-6{letter-spacing:-.01em;}.cls-7{letter-spacing:-.03em;}.cls-8{letter-spacing:0em;}.cls-9{letter-spacing:0em;}.cls-10{letter-spacing:0em;}.cls-11{letter-spacing:0em;}.cls-12{letter-spacing:0em;}</style></defs><path class="cls-1" d="M138.63,124.64c-2.29,0-3.55-1.58-4.14-2.88-.32,1.12-2.21,8.46-2.21,9,0,.4,0,.72,2.25.72.63,0,1.08,0,1.08.5,0,.9-.58.9-.81.9-1.44,0-2.97-.13-4.46-.13-1.26,0-2.57.13-3.78.13-.36,0-.58-.18-.58-.54,0-.85.5-.85,1.04-.85,1.98,0,2.07-.32,2.43-1.84l5.04-20.02c.18-.76.32-1.26.32-2.29,0-1.71-.63-2.07-1.4-2.07-1.62,0-2.52,2.16-3.29,5.36-.27.99-.31,1.04-.76,1.04,0,0-.54,0-.54-.45,0-.13.58-2.83,1.4-4.37.4-.81,1.26-2.56,3.33-2.56,1.67,0,3.6.94,4.05,3.38,1.49-1.75,3.65-3.38,5.9-3.38,3.42,0,5.98,2.97,5.98,7.2,0,6.62-5.62,13.18-10.84,13.18ZM143.35,105.25c-.76,0-2.07.32-3.64,1.71-.81.68-2.02,1.94-2.34,3.15l-2.21,8.82c-.13.54-.13.72-.13.72,0,.27.58,4,3.55,4,1.67,0,3.83-1.48,5.35-4.63.81-1.71,2.29-6.88,2.29-9.54s-1.08-4.23-2.88-4.23Z"/><path class="cls-1" d="M196.59,109.44h-28.17c-.5,0-.9-.41-.9-.9s.41-.9.9-.9h28.17c.49,0,.9.4.9.9s-.41.9-.9.9ZM196.59,118.17h-28.17c-.5,0-.9-.41-.9-.9s.41-.9.9-.9h28.17c.49,0,.9.4.9.9s-.41.9-.9.9Z"/><path class="cls-1" d="M233.89,124.15h-16.69c0-1.08,0-1.17.5-1.67l8.64-9.63c2.48-2.79,4.72-6.34,4.72-9.95s-1.93-7.33-6.03-7.33c-2.61,0-5.04,1.67-6.07,4.59.13-.04.22-.04.58-.04,1.57,0,2.38,1.17,2.38,2.34,0,1.84-1.58,2.38-2.34,2.38-.13,0-2.38,0-2.38-2.52,0-4,3.33-8.14,8.41-8.14,5.49,0,9.54,3.6,9.54,8.73,0,4.5-2.7,6.93-9.72,13.14l-4.77,4.63h8.1c.99,0,3.96,0,4.28-.36.45-.68.76-2.66.99-4h1.12l-1.26,7.83Z"/><path class="cls-1" d="M248.99,109.45c-1.23,0-2.15-.92-2.15-2.15,0-.29.03-.6.26-1.21.42-1.13,1.71-4.49,1.71-6.11,0-.87-.24-1.84-1.42-1.84-2.49,0-3.88,2.39-4.28,3.2l-.34,1.31c-.13.6-.29,1.18-.45,1.76l-.58,2.36c-.16.66-.47,1.89-.5,1.94-.18.52-.66.73-.97.73-.39,0-.76-.24-.76-.71,0-.13.16-.73.24-1.13l1.52-6.06c.34-1.36.42-1.65.42-2.2,0-.87-.29-1.21-.81-1.21-.94,0-1.47,1.26-1.92,3.12-.16.58-.18.6-.45.6,0,0-.31,0-.31-.26,0-.1.37-1.65.79-2.54.26-.47.76-1.5,1.97-1.5s2.28.81,2.41,2.28c.45-.6,1.73-2.28,4.09-2.28,1.89,0,3.02,1.05,3.02,2.81,0,1.5-1.1,4.38-1.6,5.77-.24.58-.47,1.21-.47,1.86,0,.6.18.87.63.87,1.29,0,2.15-1.47,2.68-3.25.13-.39.13-.47.39-.47.08,0,.32,0,.32.26,0,.21-.97,4.04-3.44,4.04Z"/><path class="cls-1" d="M299.72,113.8h-28.17c-.5,0-.9-.4-.9-.9s.41-.9.9-.9h28.17c.5,0,.9.41.9.9s-.4.9-.9.9Z"/><path class="cls-1" d="M329.64,124.01c-1.8,0-5.71,0-7.29.13v-1.39h1.44c4.05,0,4.18-.54,4.18-2.16v-23.31c-2.34,1.17-4.99,1.17-5.89,1.17v-1.4c1.44,0,5.4,0,8.19-2.88,1.04,0,1.04.09,1.04,1.17v25.24c0,1.67.13,2.16,4.18,2.16h1.44v1.39c-1.58-.13-5.49-.13-7.29-.13Z"/><text class="cls-3" transform="translate(154.08 66.93)"><tspan x="0" y="0">Wh</tspan><tspan class="cls-10" x="19.96" y="0">a</tspan><tspan x="27.03" y="0">t is a </tspan><tspan class="cls-11" x="56.54" y="0">M</tspan><tspan x="68.15" y="0">e</tspan><tspan class="cls-6" x="75.67" y="0">r</tspan><tspan x="80.04" y="0">senne </tspan><tspan class="cls-8" x="119.44" y="0">P</tspan><tspan x="127.83" y="0">rim</tspan><tspan class="cls-7" x="146.11" y="0">e</tspan><tspan x="153.17" y="0">?</tspan></text><text class="cls-3" transform="translate(207.16 173.33)"><tspan class="cls-12" x="0" y="0">I</tspan><tspan x="3.05" y="0">n </tspan><tspan class="cls-9" x="13.47" y="0">B</tspan><tspan x="22.57" y="0">inary:</tspan></text><text/><path class="cls-1" d="M202.4,199.94h-5.2c0-.34,0-.36.15-.52l2.69-3c.77-.87,1.47-1.97,1.47-3.1s-.6-2.28-1.88-2.28c-.81,0-1.57.52-1.89,1.43.04-.01.07-.01.18-.01.49,0,.74.36.74.73,0,.57-.49.74-.73.74-.04,0-.74,0-.74-.78,0-1.25,1.04-2.54,2.62-2.54,1.71,0,2.97,1.12,2.97,2.72,0,1.4-.84,2.16-3.03,4.09l-1.48,1.44h2.52c.31,0,1.23,0,1.33-.11.14-.21.24-.83.31-1.25h.35l-.39,2.44Z"/><path class="cls-1" d="M207.1,195.37c-.38,0-.67-.29-.67-.67,0-.09,0-.19.08-.38.13-.35.53-1.4.53-1.9,0-.27-.07-.57-.44-.57-.78,0-1.21.74-1.33,1l-.11.41c-.04.19-.09.37-.14.55l-.18.73c-.05.2-.15.59-.16.6-.06.16-.2.23-.3.23-.12,0-.24-.07-.24-.22,0-.04.05-.23.07-.35l.47-1.89c.11-.42.13-.51.13-.69,0-.27-.09-.38-.25-.38-.29,0-.46.39-.6.97-.05.18-.06.19-.14.19,0,0-.1,0-.1-.08,0-.03.11-.51.24-.79.08-.15.24-.46.61-.46s.71.25.75.71c.14-.19.54-.71,1.27-.71.59,0,.94.33.94.87,0,.46-.34,1.36-.5,1.8-.07.18-.15.38-.15.58,0,.19.06.27.2.27.4,0,.67-.46.83-1.01.04-.12.04-.15.12-.15.02,0,.1,0,.1.08,0,.07-.3,1.26-1.07,1.26Z"/><path class="cls-1" d="M220.94,195.36h-8.77c-.15,0-.28-.13-.28-.28s.13-.28.28-.28h8.77c.15,0,.28.13.28.28s-.13.28-.28.28ZM220.94,198.08h-8.77c-.15,0-.28-.13-.28-.28s.13-.28.28-.28h8.77c.15,0,.28.13.28.28s-.13.28-.28.28Z"/><path class="cls-1" d="M230.25,199.9c-.56,0-1.78,0-2.27.04v-.43h.45c1.26,0,1.3-.17,1.3-.67v-7.26c-.73.36-1.56.36-1.83.36v-.43c.45,0,1.68,0,2.55-.9.32,0,.32.03.32.36v7.86c0,.52.04.67,1.3.67h.45v.43c-.49-.04-1.71-.04-2.27-.04Z"/><path class="cls-1" d="M243.05,200.57l-8.14-3.85c-.24-.11-.24-.45,0-.56l8.14-3.85c.35-.15.59.35.25.5l-7.68,3.63,7.68,3.63c.34.15.1.66-.25.5Z"/><path class="cls-1" d="M253.94,200.57l-8.14-3.85c-.24-.11-.24-.45,0-.56l8.14-3.85c.35-.15.59.35.25.5l-7.68,3.63,7.68,3.63c.34.15.1.66-.25.5Z"/><path class="cls-1" d="M266.25,200.1c-.66,0-1.15-.49-1.15-1.15,0-.15.01-.32.14-.64.22-.6.91-2.39.91-3.26,0-.46-.13-.98-.76-.98-1.33,0-2.07,1.28-2.28,1.71l-.18.7c-.07.32-.15.63-.24.94l-.31,1.26c-.08.35-.25,1.01-.27,1.04-.1.28-.35.39-.52.39-.21,0-.41-.13-.41-.38,0-.07.08-.39.13-.6l.81-3.24c.18-.73.22-.88.22-1.18,0-.46-.15-.64-.43-.64-.5,0-.78.67-1.02,1.67-.08.31-.1.32-.24.32,0,0-.17,0-.17-.14,0-.06.2-.88.42-1.36.14-.25.41-.8,1.05-.8s1.22.43,1.29,1.22c.24-.32.92-1.22,2.18-1.22,1.01,0,1.61.56,1.61,1.5,0,.8-.59,2.34-.85,3.08-.13.31-.25.64-.25,1,0,.32.1.46.34.46.69,0,1.15-.78,1.43-1.74.07-.21.07-.25.21-.25.04,0,.17,0,.17.14,0,.11-.52,2.16-1.83,2.16Z"/><rect class="cls-5" x="224.5" y="185.91" width="47" height="19"/><path class="cls-1" d="M174.91,268.34h-5.2c0-.34,0-.36.15-.52l2.69-3c.77-.87,1.47-1.98,1.47-3.1s-.6-2.28-1.88-2.28c-.81,0-1.57.52-1.89,1.43.04-.01.07-.01.18-.01.49,0,.74.36.74.73,0,.57-.49.74-.73.74-.04,0-.74,0-.74-.78,0-1.25,1.04-2.54,2.62-2.54,1.71,0,2.97,1.12,2.97,2.72,0,1.4-.84,2.16-3.03,4.09l-1.48,1.44h2.52c.31,0,1.23,0,1.33-.11.14-.21.24-.83.31-1.25h.35l-.39,2.44Z"/><path class="cls-1" d="M179.6,263.77c-.38,0-.67-.29-.67-.67,0-.09,0-.19.08-.38.13-.35.53-1.4.53-1.9,0-.27-.07-.57-.44-.57-.78,0-1.21.74-1.33,1l-.11.41c-.04.19-.09.37-.14.55l-.18.74c-.05.2-.15.59-.16.6-.06.16-.2.23-.3.23-.12,0-.24-.07-.24-.22,0-.04.05-.23.07-.35l.47-1.89c.11-.42.13-.51.13-.69,0-.27-.09-.38-.25-.38-.29,0-.46.39-.6.97-.05.18-.06.19-.14.19,0,0-.1,0-.1-.08,0-.03.11-.51.24-.79.08-.15.24-.47.61-.47s.71.25.75.71c.14-.19.54-.71,1.27-.71.59,0,.94.33.94.87,0,.46-.34,1.36-.5,1.8-.07.18-.15.38-.15.58,0,.19.06.27.2.27.4,0,.67-.46.83-1.01.04-.12.04-.15.12-.15.02,0,.1,0,.1.08,0,.07-.3,1.26-1.07,1.26Z"/><path class="cls-1" d="M193.45,265.12h-8.77c-.15,0-.28-.13-.28-.28s.13-.28.28-.28h8.77c.15,0,.28.13.28.28s-.13.28-.28.28Z"/><path class="cls-1" d="M202.76,268.3c-.56,0-1.78,0-2.27.04v-.43h.45c1.26,0,1.3-.17,1.3-.67v-7.26c-.73.36-1.55.36-1.83.36v-.43c.45,0,1.68,0,2.55-.9.32,0,.32.03.32.36v7.86c0,.52.04.67,1.3.67h.45v.43c-.49-.04-1.71-.04-2.27-.04Z"/><path class="cls-1" d="M215.99,263.76h-8.77c-.15,0-.28-.13-.28-.28s.13-.28.28-.28h8.77c.15,0,.28.13.28.28s-.13.28-.28.28ZM215.99,266.48h-8.77c-.15,0-.28-.13-.28-.28s.13-.28.28-.28h8.77c.15,0,.28.13.28.28s-.13.28-.28.28Z"/><path class="cls-1" d="M226.21,271.81s-.06-.01-.08-.03c-1.54-1.16-3.01-3.96-3.01-6.36v-1.18c0-2.4,1.47-5.2,3.01-6.36.03-.01.06-.03.08-.03.07,0,.14.07.14.14,0,.04-.03.08-.06.11-1.46,1.09-2.42,3.89-2.42,6.14v1.18c0,2.24.97,5.04,2.42,6.13.03.03.06.07.06.11,0,.07-.07.14-.14.14Z"/><path class="cls-1" d="M230.74,268.3c-.56,0-1.78,0-2.27.04v-.43h.45c1.26,0,1.3-.17,1.3-.67v-7.26c-.73.36-1.56.36-1.83.36v-.43c.45,0,1.68,0,2.55-.9.32,0,.32.03.32.36v7.86c0,.52.04.67,1.3.67h.45v.43c-.49-.04-1.71-.04-2.27-.04Z"/><path class="cls-1" d="M243.54,268.97l-8.14-3.85c-.24-.11-.24-.45,0-.56l8.14-3.85c.35-.15.59.35.25.5l-7.68,3.63,7.68,3.63c.34.15.1.66-.25.5Z"/><path class="cls-1" d="M254.44,268.97l-8.14-3.85c-.24-.11-.24-.45,0-.56l8.14-3.85c.35-.15.59.35.25.5l-7.68,3.63,7.68,3.63c.34.15.1.66-.25.5Z"/><path class="cls-1" d="M266.74,268.5c-.66,0-1.15-.49-1.15-1.15,0-.15.01-.32.14-.64.22-.6.91-2.4.91-3.26,0-.46-.13-.98-.76-.98-1.33,0-2.07,1.27-2.28,1.71l-.18.7c-.07.32-.15.63-.24.94l-.31,1.26c-.08.35-.25,1.01-.27,1.04-.1.28-.35.39-.52.39-.21,0-.41-.13-.41-.38,0-.07.08-.39.13-.6l.81-3.24c.18-.73.22-.88.22-1.18,0-.46-.15-.64-.43-.64-.5,0-.78.67-1.02,1.67-.08.31-.1.32-.24.32,0,0-.17,0-.17-.14,0-.06.2-.88.42-1.36.14-.25.41-.8,1.05-.8s1.22.43,1.29,1.22c.24-.32.92-1.22,2.18-1.22,1.01,0,1.61.56,1.61,1.5,0,.8-.59,2.34-.85,3.08-.13.31-.25.64-.25.99,0,.32.1.46.34.46.69,0,1.15-.78,1.43-1.74.07-.21.07-.25.21-.25.04,0,.17,0,.17.14,0,.11-.52,2.16-1.83,2.16Z"/><path class="cls-1" d="M270,271.79s-.06.03-.08.03c-.07,0-.14-.07-.14-.14,0-.04.03-.08.06-.11,1.46-1.09,2.42-3.89,2.42-6.13v-1.18c0-2.24-.97-5.04-2.42-6.14-.03-.03-.06-.07-.06-.11,0-.07.07-.14.14-.14.03,0,.06.01.08.03,1.54,1.16,3.01,3.96,3.01,6.36v1.18c0,2.4-1.47,5.2-3.01,6.36Z"/><path class="cls-1" d="M284.25,265.12h-8.77c-.15,0-.28-.13-.28-.28s.13-.28.28-.28h8.77c.15,0,.28.13.28.28s-.13.28-.28.28Z"/><path class="cls-1" d="M293.56,268.3c-.56,0-1.78,0-2.27.04v-.43h.45c1.26,0,1.3-.17,1.3-.67v-7.26c-.73.36-1.56.36-1.83.36v-.43c.45,0,1.68,0,2.55-.9.32,0,.32.03.32.36v7.86c0,.52.04.67,1.3.67h.45v.43c-.49-.04-1.71-.04-2.27-.04Z"/><rect class="cls-4" x="219.99" y="254.4" width="79" height="19"/><text class="cls-2" transform="translate(62.31 234.11)"><tspan x="0" y="0">100000000000000000000000000000000000000000000000000</tspan></text><rect class="cls-4" x="59" y="221.07" width="350" height="19"/><text class="cls-2" transform="translate(62.31 299.11)"><tspan x="0" y="0">0111111111111111111111111111111111111111111111111111111111111111111111111111111111111111111111111111</tspan></text><rect class="cls-4" x="59" y="286.07" width="350" height="19"/></svg>