<?xml version="1.0" encoding="UTF-8"?><svg id="Layer_2" xmlns="http://www.w3.org/2000/svg" viewBox="0 0 468 468"><defs><style>.cls-1{fill:#231f20;}.cls-2{stroke-dasharray:3.06 3.06;}.cls-2,.cls-3,.cls-4,.cls-5,.cls-6,.cls-7,.cls-8{fill:none;stroke:#231f20;stroke-linejoin:round;stroke-width:.8px;}.cls-3{stroke-dasharray:3.16 3.16;}.cls-4{stroke-dasharray:2.98 2.98;}.cls-5{stroke-linecap:round;}.cls-6{stroke-dasharray:3.05 3.05;}.cls-7{stroke-dasharray:2.98 2.98;}</style></defs><polygon class="cls-5" points="75.52 158.69 147.52 95.69 191.52 128.69 166.52 224.69 95.52 286.69 50.52 253.69 75.52 158.69"/><polyline class="cls-5" points="50.52 253.69 75.52 300.69 146.52 380.69 191.52 413.69 166.52 366.69 95.52 286.69"/><polyline class="cls-5" points="166.52 366.69 237.52 304.69 166.52 224.69"/><polyline class="cls-5" points="237.52 304.69 334.52 288.69 360.52 335.69 288.52 398.69 191.52 413.69"/><line class="cls-5" x1="334.52" y1="288.69" x2="360.52" y2="193.08"/><polyline class="cls-5" points="360.52 335.69 386.52 239.69 360.52 193.08 289.52 113.69 191.52 128.69"/><polyline class="cls-5" points="147.52 95.69 243.52 80.69 289.52 113.69"/><line class="cls-8" x1="138.67" y1="321.83" x2="168.51" y2="293.69"/><polygon class="cls-1" points="141.42 322.43 133.52 326.69 138.23 319.05 141.42 322.43"/><line class="cls-8" x1="169.44" y1="292.75" x2="170.54" y2="291.72"/><line class="cls-2" x1="172.77" y1="289.63" x2="216.31" y2="248.76"/><line class="cls-8" x1="217.42" y1="247.72" x2="218.52" y2="246.69"/><line class="cls-8" x1="218.52" y1="245.69" x2="218.52" y2="244.19"/><line class="cls-4" x1="218.51" y1="241.21" x2="218.34" y2="111.62"/><line class="cls-8" x1="218.34" y1="110.13" x2="218.34" y2="108.63"/><line class="cls-8" x1="410.43" y1="270.17" x2="361.26" y2="265.02"/><polygon class="cls-1" points="409.1 267.69 417.48 270.91 408.62 272.32 409.1 267.69"/><line class="cls-8" x1="217.82" y1="246.87" x2="218.98" y2="245.92"/><line class="cls-3" x1="221.41" y1="243.9" x2="259.14" y2="212.65"/><line class="cls-8" x1="260.36" y1="211.65" x2="261.52" y2="210.69"/><line class="cls-8" x1="217.52" y1="246.69" x2="219.01" y2="246.88"/><line class="cls-7" x1="221.96" y1="247.25" x2="356.55" y2="264.31"/><line class="cls-8" x1="358.03" y1="264.5" x2="359.52" y2="264.69"/><line class="cls-8" x1="218.22" y1="246.46" x2="219.42" y2="247.36"/><line class="cls-6" x1="221.86" y1="249.19" x2="284.1" y2="295.87"/><line class="cls-8" x1="285.32" y1="296.79" x2="286.52" y2="297.69"/><line class="cls-8" x1="262.96" y1="208.77" x2="286.52" y2="297.69"/><line class="cls-8" x1="262.52" y1="208.69" x2="334.52" y2="288.69"/><line class="cls-8" x1="262.52" y1="208.69" x2="347.52" y2="241.69"/><line class="cls-8" x1="347.52" y1="241.69" x2="360.52" y2="264.69"/><line class="cls-8" x1="360.52" y1="264.69" x2="334.52" y2="288.69"/><line class="cls-8" x1="218.49" y1="66.78" x2="218.33" y2="105.2"/><polygon class="cls-1" points="216.16 68.35 218.52 59.69 220.81 68.37 216.16 68.35"/><circle class="cls-1" cx="263.63" cy="209.62" r="2.23"/><circle class="cls-1" cx="218.3" cy="246.31" r="2.23"/><circle class="cls-1" cx="346.93" cy="241.16" r="2.23"/><circle class="cls-1" cx="360.08" cy="264.66" r="2.23"/><circle class="cls-1" cx="334.05" cy="288.89" r="2.23"/><circle class="cls-1" cx="285.41" cy="296.36" r="2.23"/><path class="cls-1" d="M231.79,61.08c-.49,0-.68-.34-.68-.63,0-.22.16-.92,1.03-.97-.04-.04-.04-.05-.07-.07-.14-.11-.16-.11-.38-.14-.04-.02-.05-.02-.16-.02-.88,0-1.71.77-2.58,1.73-.41.43-.99,1.01-1.55,1.33,1.53.2,2.67.72,2.67,1.89,0,.18,0,.25-.07.56-.07.29-.14.7-.14,1.01,0,.65.23.85.58.85.79,0,1.21-.92,1.57-2.23.05-.25.07-.32.25-.32.05,0,.22,0,.22.18,0,0-.2,1.03-.65,1.82-.4.67-.88.95-1.42.95-.94,0-1.66-.72-1.66-1.78,0-.2.04-.42.07-.63.05-.18.05-.25.05-.38,0-1.19-1.48-1.48-2.09-1.53-.11.45-.92,3.78-1.01,3.94-.11.22-.38.38-.61.38-.16,0-.52-.09-.52-.5,0-.11,0-.14.07-.4l2.61-10.37.05-.36c0-.18-.04-.31-.9-.31-.27,0-.43,0-.43-.22,0-.32.2-.34.34-.36.47-.04,1.78-.18,2.2-.18.23,0,.23.2.23.2l-1.87,7.6c.68-.27,1.39-.99,2-1.67,1.3-1.44,2.12-1.58,2.63-1.58.81,0,1.22.59,1.22,1.13,0,.7-.52,1.1-.99,1.1Z"/><path class="cls-1" d="M237.43,66.52c-.43.43-1.17,1.08-1.17,1.08-.43.37-.78.67-1.43,1.37.11-.04.32-.04.32-.04.25,0,.43.05.84.2.25.08.47.16.71.16.4,0,1.16-.23,1.44-1.01.04-.08.06-.16.17-.16.1,0,.14.06.14.12,0,.32-.7,1.85-1.88,1.85-.35,0-.56-.19-.77-.44-.3-.35-.42-.46-.7-.46-.38,0-.74.32-1.02.74-.07.13-.1.16-.19.16,0,0-.14,0-.14-.12,0-.08.42-.77,1.24-1.57l1.08-1.01c.23-.19,1.24-1.06,1.67-1.57-.31,0-.44,0-.92-.18-.28-.1-.5-.18-.76-.18-.1,0-.79.01-1.02.56-.02.07-.05.13-.16.13s-.14-.07-.14-.13c0-.25.55-1.37,1.45-1.37.4,0,.6.24.83.52.18.2.32.38.61.38s.54-.19.9-.77c.06-.11.1-.13.18-.13,0,0,.13,0,.13.12,0,.05-.26.62-1.4,1.74Z"/><path class="cls-1" d="M151.61,324.25c-.49,0-.68-.34-.68-.63,0-.22.16-.92,1.03-.97-.04-.04-.04-.05-.07-.07-.14-.11-.16-.11-.38-.14-.04-.02-.05-.02-.16-.02-.88,0-1.71.77-2.58,1.73-.41.43-.99,1.01-1.55,1.33,1.53.2,2.67.72,2.67,1.89,0,.18,0,.25-.07.56-.07.29-.14.7-.14,1.01,0,.65.23.85.58.85.79,0,1.21-.92,1.57-2.23.05-.25.07-.32.25-.32.05,0,.22,0,.22.18,0,0-.2,1.03-.65,1.82-.4.67-.88.95-1.42.95-.94,0-1.66-.72-1.66-1.78,0-.2.04-.42.07-.63.05-.18.05-.25.05-.38,0-1.19-1.48-1.48-2.09-1.53-.11.45-.92,3.78-1.01,3.94-.11.22-.38.38-.61.38-.16,0-.52-.09-.52-.5,0-.11,0-.14.07-.4l2.61-10.37.05-.36c0-.18-.04-.31-.9-.31-.27,0-.43,0-.43-.22,0-.32.2-.34.34-.36.47-.04,1.78-.18,2.2-.18.23,0,.23.2.23.2l-1.87,7.6c.68-.27,1.39-.99,2-1.67,1.3-1.44,2.12-1.58,2.63-1.58.81,0,1.22.59,1.22,1.13,0,.7-.52,1.1-.99,1.1Z"/><path class="cls-1" d="M158.73,329.32c-.32,0-.46-.23-.46-.42,0-.29.24-.59.58-.65-.25-.16-.54-.16-.6-.16-.84,0-1.12,1.1-1.19,1.42l-.41,1.64c-.13.53-.2.79-.2,1.05,0,.41.19.79.66.79.38,0,1.2-.29,1.59-1.57.02-.08.05-.13.16-.13.04,0,.14,0,.14.12,0,.3-.68,1.85-1.92,1.85-.72,0-1.15-.47-1.29-.91-.04.07-.47.91-1.26.91-.53,0-1.13-.24-1.13-.79,0-.38.3-.7.66-.7.18,0,.44.1.44.42s-.26.59-.56.65c.25.16.53.16.6.16.53,0,.95-.5,1.14-1.25.44-1.68.65-2.48.65-2.85,0-.7-.42-.8-.65-.8-.41,0-1.2.3-1.61,1.57-.02.11-.06.13-.16.13,0,0-.14,0-.14-.12,0-.3.68-1.85,1.93-1.85.35,0,1,.12,1.3.91.14-.28.56-.91,1.26-.91.41,0,1.12.17,1.12.79,0,.48-.38.7-.65.7Z"/><path class="cls-1" d="M402.78,281.86c-.49,0-.68-.34-.68-.63,0-.22.16-.92,1.03-.97-.04-.04-.04-.05-.07-.07-.14-.11-.16-.11-.38-.14-.04-.02-.05-.02-.16-.02-.88,0-1.71.77-2.58,1.73-.41.43-.99,1.01-1.55,1.33,1.53.2,2.67.72,2.67,1.89,0,.18,0,.25-.07.56-.07.29-.14.7-.14,1.01,0,.65.23.85.58.85.79,0,1.21-.92,1.57-2.23.05-.25.07-.32.25-.32.05,0,.22,0,.22.18,0,0-.2,1.03-.65,1.82-.4.67-.88.95-1.42.95-.94,0-1.66-.72-1.66-1.78,0-.2.04-.42.07-.63.05-.18.05-.25.05-.38,0-1.19-1.48-1.48-2.09-1.53-.11.45-.92,3.78-1.01,3.94-.11.22-.38.38-.61.38-.16,0-.52-.09-.52-.5,0-.11,0-.14.07-.4l2.61-10.37.05-.36c0-.18-.04-.31-.9-.31-.27,0-.43,0-.43-.22,0-.32.2-.34.34-.36.47-.04,1.78-.18,2.2-.18.23,0,.23.2.23.2l-1.87,7.6c.68-.27,1.39-.99,2-1.67,1.3-1.44,2.12-1.58,2.63-1.58.81,0,1.22.59,1.22,1.13,0,.7-.52,1.1-.99,1.1Z"/><path class="cls-1" d="M410.05,286.18l-1.15,4.58c-.34,1.36-1.57,2.45-2.81,2.45-.74,0-1.27-.44-1.27-1.04s.4-.78.67-.78c.12,0,.44.05.44.42,0,.23-.12.38-.24.49-.17.14-.32.14-.52.14.2.47.74.5.91.5.55,0,1.01-.35,1.32-.75.48-.64.62-1.22.78-1.85-.34.34-.74.54-1.21.54-.71,0-1.46-.36-1.46-1.43,0-.56.22-1.25.7-2.52.08-.23.2-.54.2-.84,0-.38-.2-.38-.3-.38-.41,0-.89.36-1.21,1.49-.06.19-.07.22-.19.22,0,0-.14,0-.14-.12,0-.11.44-1.85,1.58-1.85.6,0,.98.44.98.98,0,.24-.05.37-.24.86-.41,1.06-.61,1.8-.61,2.35,0,.44.13.97.74.97.79,0,1.31-.84,1.36-1.02l.54-2.16.24-.96c.05-.22.14-.59.17-.65.11-.18.3-.25.42-.25.18,0,.35.11.35.32,0,.08,0,.11-.05.28Z"/><path class="cls-1" d="M376.63,249.74c-1.08.05-1.76.49-2.29.92-.58.5-2.47,2.65-3.69,3.91l2.32,5.56c.31.72.34.77,1.55.79.14,0,.32,0,.32.22,0,.34-.22.34-.34.34-.45,0-1.55-.05-2-.05l-2.27.05c-.07,0-.27,0-.27-.22,0-.31.16-.32.36-.34.7-.07,1.04-.38,1.04-.52l-.09-.25-1.82-4.3-1.62,1.76-1.84,1.94c-.22.23-.49.52-.49.81,0,.5.56.54.72.56,0,0,.22.02.22.2,0,.36-.22.36-.32.36-.65,0-1.35-.05-2.02-.05-.56,0-1.15.05-1.69.05-.23,0-.23-.2-.23-.2,0-.34.16-.34.4-.36.92-.05,1.76-.34,2.65-1.3.11-.09.13-.11.23-.2l3.8-4.09-2.12-5.02c-.16-.4-.27-.58-1.35-.58-.23,0-.41,0-.41-.2,0-.36.22-.36.32-.36.45,0,1.57.05,2.02.05.76,0,1.53-.05,2.27-.05.05,0,.27,0,.27.22,0,.31-.18.32-.36.34-.76.07-1.06.41-1.06.52l.09.23,1.51,3.58,2.92-3.13c.14-.16.34-.4.34-.65,0-.5-.56-.54-.72-.56-.13-.02-.22-.07-.22-.2,0-.36.23-.36.34-.36.65,0,1.33.05,2,.05.56,0,1.15-.05,1.69-.05.23,0,.23.2.23.2,0,.34-.16.34-.4.36Z"/><path class="cls-1" d="M335.4,294.5c-1.13.09-1.57.74-2.02,1.53l-5.91,10.26c-.09.16-.2.34-.43.34-.22,0-.25-.09-.29-.47l-.67-9.09-5.29,9.18c-.16.27-.22.38-.43.38-.25,0-.27-.14-.29-.47l-.81-11c-.04-.5-.05-.67-.95-.67-.29,0-.45,0-.45-.22,0-.34.23-.34.32-.34.61,0,1.26.05,1.89.05.74,0,1.49-.05,2.21-.05,0,0,.25,0,.25.2,0,.36-.2.36-.38.36-1.37.02-1.37.43-1.37.65l.68,9.13,4.56-7.94-.11-1.39c-.04-.34-.16-.45-.95-.45-.25,0-.43,0-.43-.2,0-.36.23-.36.34-.36.41,0,1.48.05,1.89.05.72,0,1.48-.05,2.2-.05.07,0,.27.02.27.2,0,.36-.18.36-.49.36-1.31.02-1.28.49-1.26.85l.67,8.93,4.86-8.48c.14-.25.23-.4.23-.59,0-.54-.63-.68-1.06-.7-.11,0-.27-.02-.27-.22,0-.34.23-.34.34-.34.59,0,1.26.05,1.87.05.45,0,.95-.05,1.39-.05.14,0,.22.13.22.2,0,.34-.18.34-.34.36Z"/><path class="cls-1" d="M293.73,300.86c-.54.05-1.24.13-2.93,1.37l-3.15,2.43c-.2.14-.52.41-.52.41,0,.05.07.2.09.25l2.56,5.91c.27.63.5.79,1.24.81.16,0,.36,0,.36.2,0,.36-.23.36-.32.36-.4,0-1.37-.05-1.76-.05-.72,0-1.48.05-2.2.05,0,0-.25,0-.25-.2,0-.36.2-.36.4-.36.16,0,.94-.02.94-.56,0-.11,0-.14-.22-.63l-2.09-4.84-2.68,2.09-.72,2.83c-.05.27-.16.67-.16.79,0,.32.5.32,1.17.32.34,0,.5,0,.5.2,0,.36-.23.36-.36.36-.38,0-.77-.04-1.17-.04l-1.15-.02-2.29.05c-.05,0-.27,0-.27-.22,0-.34.2-.34.5-.34,1.42,0,1.46-.14,1.64-.85l2.41-9.67c.05-.22.07-.27.07-.34,0-.2-.11-.25-.4-.29-.22-.02-.54-.04-.77-.04-.36,0-.52,0-.52-.22,0-.34.23-.34.36-.34l2.32.05,2.3-.05c.11,0,.25.04.25.2,0,.36-.16.36-.61.36-1.31,0-1.35.18-1.51.83l-1.44,5.78,7.02-5.4c.11-.09.65-.5.65-.83,0-.25-.16-.34-.56-.38-.13-.02-.22-.07-.22-.2,0-.36.22-.36.34-.36.65,0,1.35.05,2,.05.43,0,.88-.05,1.28-.05.14,0,.2.13.2.2,0,.32-.18.34-.32.36Z"/><path class="cls-1" d="M268.64,201.48l-1.42,3.89c-.11.31-.13.31-.56.31h-8.34c-.32,0-.49,0-.49-.2,0-.36.18-.36.49-.36,1.42,0,1.46-.14,1.64-.85l2.41-9.67c.05-.22.07-.27.07-.34,0-.23-.16-.25-.49-.29-.31-.04-.68-.04-.68-.04-.34,0-.5,0-.5-.2,0-.36.22-.36.34-.36l2.39.05,2.67-.05c.09,0,.29,0,.29.22,0,.34-.14.34-.68.34-1.69,0-1.75.2-1.91.85l-2.43,9.72c-.09.32-.09.36-.09.41,0,.14.05.16.23.18.11.02.14.02.4.02h1.69c3.11,0,3.91-2.05,4.52-3.71.13-.29.14-.38.31-.38s.22.13.22.2c0,0,0,.05-.07.25Z"/><path class="cls-1" d="M350.59,223.57c-1.44.05-1.76.59-1.94,1.33l-1.6,6.39c-.59,2.38-2.83,4.41-5.1,4.41-1.89,0-3.53-1.26-3.53-3.46,0-.27,0-.54.13-1.04l1.1-4.45.4-1.58c.11-.41.31-1.17.31-1.28,0-.23-.16-.25-.49-.29-.31-.04-.68-.04-.68-.04-.34,0-.5,0-.5-.2,0-.36.2-.36.34-.36l2.32.05,2.3-.05c.05,0,.25,0,.25.2,0,.36-.14.36-.61.36-1.31,0-1.35.18-1.51.83l-1.75,7c-.2.79-.2,1.4-.2,1.4,0,1.55.97,2.34,2.2,2.34,1.8,0,3.87-1.57,4.48-3.98l1.62-6.43c.02-.05.05-.32.05-.38,0-.4-.2-.77-1.22-.79-.14,0-.32,0-.32-.2,0-.36.22-.36.32-.36.59,0,1.26.05,1.87.05s1.24-.05,1.84-.05c.23,0,.23.2.23.2,0,.34-.22.36-.31.36Z"/><path class="cls-1" d="M244.17,269.52l-.34,3.13c-.04.31-.05.45-.25.45-.22,0-.23-.22-.23-.22,0-.27.07-.63.07-.94,0-1.93-.83-2.34-3.51-2.34h-4.38l2.34,5.33c.07.16.09.25.09.25,0,.09-.04.14-.22.31l-5.69,5.11h4.9c3.15,0,4.16-.56,5.26-3.24.07-.14.11-.25.25-.25.16,0,.22.11.22.2,0,0-.07.25-.09.29l-1.3,3.44c-.11.29-.13.31-.56.31h-9.49c-.34,0-.5,0-.5-.2,0-.07.02-.09.22-.27l5.54-5.01-2.72-6.18c-.11-.22-.11-.29-.11-.29,0-.36.18-.36.54-.36h9.49c.36,0,.5,0,.5.23l-.04.23Z"/><path class="cls-1" d="M214.73,239.5c-.04.34-.05.45-.25.45-.16,0-.22-.13-.22-.22,0-.05,0-.09.04-.32.05-.49.05-1.03.05-1.03,0-1.24-.25-1.93-2.43-1.93h-2.07c-.79,0-.81.07-.97.7l-2.41,9.62c-.07.27-.07.41-.07.41,0,.23.05.31.58.36.45.04.54.04.94.04s.45,0,.5.02c0,0,.11.05.11.2,0,.34-.23.34-.38.34l-2.68-.05-2.38.05s-.25,0-.25-.2c0-.36.18-.36.49-.36,1.42,0,1.46-.14,1.64-.85l2.39-9.53c.07-.25.07-.29.07-.43,0-.32-.49-.32-1.21-.32-.29,0-.47,0-.47-.2,0-.36.18-.36.54-.36h8.32c.45,0,.54,0,.49.49l-.36,3.12Z"/><path class="cls-1" d="M241.25,224.14c-.43,0-1.48-.05-1.91-.05-.74,0-1.5.05-2.21.05-.07,0-.27,0-.27-.22,0-.34.2-.34.41-.34,1.39-.02,1.37-.47,1.33-.86l-.67-9-4.88,8.55c-.18.31-.25.43-.25.67,0,.5.52.63.9.65.05,0,.25.02.25.2,0,.36-.23.36-.32.36-.58,0-1.19-.05-1.78-.05-.47,0-.95.05-1.4.05-.11,0-.22-.07-.22-.22,0-.31.16-.32.36-.34,1.1-.09,1.53-.76,1.96-1.49l6.01-10.5c.14-.23.22-.34.49-.34.18,0,.31.02.32.31,0,.05.02.11.02.16l.81,11.2c.04.54.05.67.94.67.29,0,.45,0,.45.22,0,.34-.23.34-.34.34Z"/><path class="cls-1" d="M264.6,248.14h-12.42c-.38,0-.4-.02-.4-.11,0,0,0-.07.14-.25l9.11-12.19c.25-.34.4-.34.56-.34.32,0,.34.07.43.43l3.01,12.03c.02.07.04.18.04.25,0,.18-.16.18-.47.18ZM260.65,236.94l-7.42,9.9h9.88l-2.47-9.9Z"/></svg>